<mxfile host="app.diagrams.net" modified="2024-12-25T17:58:34.893Z" agent="Mozilla/5.0 (Windows NT 10.0; Win64; x64) AppleWebKit/537.36 (KHTML, like Gecko) Chrome/131.0.0.0 Safari/537.36" etag="tosr6wiBp1u3vO4Rl7eP" version="22.1.21" type="device">
  <diagram id="C5RBs43oDa-KdzZeNtuy" name="Page-1">
    <mxGraphModel dx="1961" dy="589" grid="1" gridSize="10" guides="1" tooltips="1" connect="1" arrows="1" fold="1" page="1" pageScale="1" pageWidth="827" pageHeight="1169" background="#ffffff" math="0" shadow="0">
      <root>
        <mxCell id="WIyWlLk6GJQsqaUBKTNV-0" />
        <mxCell id="WIyWlLk6GJQsqaUBKTNV-1" parent="WIyWlLk6GJQsqaUBKTNV-0" />
        <mxCell id="zkfFHV4jXpPFQw0GAbJ--0" value="Piece" style="swimlane;fontStyle=2;align=center;verticalAlign=top;childLayout=stackLayout;horizontal=1;startSize=20;horizontalStack=0;resizeParent=1;resizeLast=0;collapsible=1;marginBottom=0;rounded=0;shadow=0;strokeWidth=1;fillColor=#dae8fc;strokeColor=#6c8ebf;" parent="WIyWlLk6GJQsqaUBKTNV-1" vertex="1">
          <mxGeometry x="220" y="120" width="160" height="166" as="geometry">
            <mxRectangle x="230" y="140" width="160" height="26" as="alternateBounds" />
          </mxGeometry>
        </mxCell>
        <mxCell id="zkfFHV4jXpPFQw0GAbJ--4" value="" style="line;html=1;strokeWidth=1;align=left;verticalAlign=middle;spacingTop=-1;spacingLeft=3;spacingRight=3;rotatable=0;labelPosition=right;points=[];portConstraint=eastwest;" parent="zkfFHV4jXpPFQw0GAbJ--0" vertex="1">
          <mxGeometry y="20" width="160" height="60" as="geometry" />
        </mxCell>
        <mxCell id="zkfFHV4jXpPFQw0GAbJ--5" value="move&#xa;isvalid&#xa;&#xa;" style="text;align=left;verticalAlign=top;spacingLeft=4;spacingRight=4;overflow=hidden;rotatable=0;points=[[0,0.5],[1,0.5]];portConstraint=eastwest;" parent="zkfFHV4jXpPFQw0GAbJ--0" vertex="1">
          <mxGeometry y="80" width="160" height="56" as="geometry" />
        </mxCell>
        <mxCell id="zkfFHV4jXpPFQw0GAbJ--6" value="rook" style="swimlane;fontStyle=0;align=center;verticalAlign=top;childLayout=stackLayout;horizontal=1;startSize=26;horizontalStack=0;resizeParent=1;resizeLast=0;collapsible=1;marginBottom=0;rounded=0;shadow=0;strokeWidth=1;" parent="WIyWlLk6GJQsqaUBKTNV-1" vertex="1">
          <mxGeometry x="-10" y="348" width="160" height="108" as="geometry">
            <mxRectangle x="130" y="380" width="160" height="26" as="alternateBounds" />
          </mxGeometry>
        </mxCell>
        <mxCell id="zkfFHV4jXpPFQw0GAbJ--9" value="" style="line;html=1;strokeWidth=1;align=left;verticalAlign=middle;spacingTop=-1;spacingLeft=3;spacingRight=3;rotatable=0;labelPosition=right;points=[];portConstraint=eastwest;" parent="zkfFHV4jXpPFQw0GAbJ--6" vertex="1">
          <mxGeometry y="26" width="160" height="8" as="geometry" />
        </mxCell>
        <mxCell id="zkfFHV4jXpPFQw0GAbJ--10" value="move" style="text;align=left;verticalAlign=top;spacingLeft=4;spacingRight=4;overflow=hidden;rotatable=0;points=[[0,0.5],[1,0.5]];portConstraint=eastwest;fontStyle=4" parent="zkfFHV4jXpPFQw0GAbJ--6" vertex="1">
          <mxGeometry y="34" width="160" height="26" as="geometry" />
        </mxCell>
        <mxCell id="zkfFHV4jXpPFQw0GAbJ--11" value="isvalid&#xa;" style="text;align=left;verticalAlign=top;spacingLeft=4;spacingRight=4;overflow=hidden;rotatable=0;points=[[0,0.5],[1,0.5]];portConstraint=eastwest;" parent="zkfFHV4jXpPFQw0GAbJ--6" vertex="1">
          <mxGeometry y="60" width="160" height="30" as="geometry" />
        </mxCell>
        <mxCell id="zkfFHV4jXpPFQw0GAbJ--12" value="" style="endArrow=block;endSize=10;endFill=0;shadow=0;strokeWidth=1;rounded=0;curved=0;edgeStyle=elbowEdgeStyle;elbow=vertical;" parent="WIyWlLk6GJQsqaUBKTNV-1" source="zkfFHV4jXpPFQw0GAbJ--6" target="zkfFHV4jXpPFQw0GAbJ--0" edge="1">
          <mxGeometry width="160" relative="1" as="geometry">
            <mxPoint x="200" y="203" as="sourcePoint" />
            <mxPoint x="200" y="203" as="targetPoint" />
          </mxGeometry>
        </mxCell>
        <mxCell id="zkfFHV4jXpPFQw0GAbJ--13" value="bishope" style="swimlane;fontStyle=0;align=center;verticalAlign=top;childLayout=stackLayout;horizontal=1;startSize=26;horizontalStack=0;resizeParent=1;resizeLast=0;collapsible=1;marginBottom=0;rounded=0;shadow=0;strokeWidth=1;" parent="WIyWlLk6GJQsqaUBKTNV-1" vertex="1">
          <mxGeometry x="170" y="348" width="160" height="70" as="geometry">
            <mxRectangle x="340" y="380" width="170" height="26" as="alternateBounds" />
          </mxGeometry>
        </mxCell>
        <mxCell id="zkfFHV4jXpPFQw0GAbJ--15" value="" style="line;html=1;strokeWidth=1;align=left;verticalAlign=middle;spacingTop=-1;spacingLeft=3;spacingRight=3;rotatable=0;labelPosition=right;points=[];portConstraint=eastwest;" parent="zkfFHV4jXpPFQw0GAbJ--13" vertex="1">
          <mxGeometry y="26" width="160" height="8" as="geometry" />
        </mxCell>
        <mxCell id="LtAShRvpwiNXkR26QhW_-31" value="move&lt;br style=&quot;border-color: var(--border-color);&quot;&gt;isvalid" style="text;html=1;strokeColor=none;fillColor=none;align=center;verticalAlign=middle;whiteSpace=wrap;rounded=0;" vertex="1" parent="zkfFHV4jXpPFQw0GAbJ--13">
          <mxGeometry y="34" width="160" height="30" as="geometry" />
        </mxCell>
        <mxCell id="zkfFHV4jXpPFQw0GAbJ--16" value="" style="endArrow=block;endSize=10;endFill=0;shadow=0;strokeWidth=1;rounded=0;curved=0;edgeStyle=elbowEdgeStyle;elbow=vertical;" parent="WIyWlLk6GJQsqaUBKTNV-1" source="zkfFHV4jXpPFQw0GAbJ--13" target="zkfFHV4jXpPFQw0GAbJ--0" edge="1">
          <mxGeometry width="160" relative="1" as="geometry">
            <mxPoint x="210" y="373" as="sourcePoint" />
            <mxPoint x="310" y="271" as="targetPoint" />
          </mxGeometry>
        </mxCell>
        <mxCell id="LtAShRvpwiNXkR26QhW_-10" value="" style="endArrow=block;endSize=10;endFill=0;shadow=0;strokeWidth=1;rounded=0;curved=0;edgeStyle=elbowEdgeStyle;elbow=vertical;" edge="1" parent="WIyWlLk6GJQsqaUBKTNV-1" source="LtAShRvpwiNXkR26QhW_-6">
          <mxGeometry width="160" relative="1" as="geometry">
            <mxPoint x="170" y="564" as="sourcePoint" />
            <mxPoint x="64" y="460" as="targetPoint" />
          </mxGeometry>
        </mxCell>
        <mxCell id="LtAShRvpwiNXkR26QhW_-11" value="" style="endArrow=block;endSize=10;endFill=0;shadow=0;strokeWidth=1;rounded=0;curved=0;edgeStyle=elbowEdgeStyle;elbow=vertical;entryX=0.5;entryY=1;entryDx=0;entryDy=0;exitX=0.5;exitY=0;exitDx=0;exitDy=0;" edge="1" parent="WIyWlLk6GJQsqaUBKTNV-1" source="LtAShRvpwiNXkR26QhW_-6" target="zkfFHV4jXpPFQw0GAbJ--13">
          <mxGeometry width="160" relative="1" as="geometry">
            <mxPoint x="190" y="564" as="sourcePoint" />
            <mxPoint x="390" y="500" as="targetPoint" />
          </mxGeometry>
        </mxCell>
        <mxCell id="LtAShRvpwiNXkR26QhW_-6" value="queen" style="swimlane;fontStyle=1;align=center;verticalAlign=top;childLayout=stackLayout;horizontal=1;startSize=26;horizontalStack=0;resizeParent=1;resizeParentMax=0;resizeLast=0;collapsible=1;marginBottom=0;whiteSpace=wrap;html=1;" vertex="1" parent="WIyWlLk6GJQsqaUBKTNV-1">
          <mxGeometry x="110" y="550" width="160" height="90" as="geometry" />
        </mxCell>
        <mxCell id="LtAShRvpwiNXkR26QhW_-8" value="" style="line;strokeWidth=1;fillColor=none;align=left;verticalAlign=middle;spacingTop=-1;spacingLeft=3;spacingRight=3;rotatable=0;labelPosition=right;points=[];portConstraint=eastwest;strokeColor=inherit;" vertex="1" parent="LtAShRvpwiNXkR26QhW_-6">
          <mxGeometry y="26" width="160" height="8" as="geometry" />
        </mxCell>
        <mxCell id="LtAShRvpwiNXkR26QhW_-9" value="move&lt;br style=&quot;border-color: var(--border-color); text-align: center;&quot;&gt;&lt;span style=&quot;text-align: center;&quot;&gt;isvalid&lt;/span&gt;" style="text;strokeColor=none;fillColor=none;align=left;verticalAlign=top;spacingLeft=4;spacingRight=4;overflow=hidden;rotatable=0;points=[[0,0.5],[1,0.5]];portConstraint=eastwest;whiteSpace=wrap;html=1;" vertex="1" parent="LtAShRvpwiNXkR26QhW_-6">
          <mxGeometry y="34" width="160" height="56" as="geometry" />
        </mxCell>
        <mxCell id="LtAShRvpwiNXkR26QhW_-13" value="pawn" style="swimlane;fontStyle=1;align=center;verticalAlign=top;childLayout=stackLayout;horizontal=1;startSize=26;horizontalStack=0;resizeParent=1;resizeParentMax=0;resizeLast=0;collapsible=1;marginBottom=0;whiteSpace=wrap;html=1;" vertex="1" parent="WIyWlLk6GJQsqaUBKTNV-1">
          <mxGeometry x="350" y="346" width="160" height="80" as="geometry" />
        </mxCell>
        <mxCell id="LtAShRvpwiNXkR26QhW_-15" value="" style="line;strokeWidth=1;fillColor=none;align=left;verticalAlign=middle;spacingTop=-1;spacingLeft=3;spacingRight=3;rotatable=0;labelPosition=right;points=[];portConstraint=eastwest;strokeColor=inherit;" vertex="1" parent="LtAShRvpwiNXkR26QhW_-13">
          <mxGeometry y="26" width="160" height="8" as="geometry" />
        </mxCell>
        <mxCell id="LtAShRvpwiNXkR26QhW_-16" value="move&lt;br&gt;is valid" style="text;strokeColor=none;fillColor=none;align=left;verticalAlign=top;spacingLeft=4;spacingRight=4;overflow=hidden;rotatable=0;points=[[0,0.5],[1,0.5]];portConstraint=eastwest;whiteSpace=wrap;html=1;" vertex="1" parent="LtAShRvpwiNXkR26QhW_-13">
          <mxGeometry y="34" width="160" height="46" as="geometry" />
        </mxCell>
        <mxCell id="LtAShRvpwiNXkR26QhW_-18" value="" style="endArrow=block;endSize=10;endFill=0;shadow=0;strokeWidth=1;rounded=0;curved=0;edgeStyle=elbowEdgeStyle;elbow=vertical;exitX=0.5;exitY=0;exitDx=0;exitDy=0;" edge="1" parent="WIyWlLk6GJQsqaUBKTNV-1" source="LtAShRvpwiNXkR26QhW_-13">
          <mxGeometry width="160" relative="1" as="geometry">
            <mxPoint x="340" y="350" as="sourcePoint" />
            <mxPoint x="300" y="290" as="targetPoint" />
          </mxGeometry>
        </mxCell>
        <mxCell id="LtAShRvpwiNXkR26QhW_-20" value="knight" style="swimlane;fontStyle=1;align=center;verticalAlign=top;childLayout=stackLayout;horizontal=1;startSize=26;horizontalStack=0;resizeParent=1;resizeParentMax=0;resizeLast=0;collapsible=1;marginBottom=0;whiteSpace=wrap;html=1;" vertex="1" parent="WIyWlLk6GJQsqaUBKTNV-1">
          <mxGeometry x="520" y="348" width="160" height="80" as="geometry" />
        </mxCell>
        <mxCell id="LtAShRvpwiNXkR26QhW_-22" value="" style="line;strokeWidth=1;fillColor=none;align=left;verticalAlign=middle;spacingTop=-1;spacingLeft=3;spacingRight=3;rotatable=0;labelPosition=right;points=[];portConstraint=eastwest;strokeColor=inherit;" vertex="1" parent="LtAShRvpwiNXkR26QhW_-20">
          <mxGeometry y="26" width="160" height="8" as="geometry" />
        </mxCell>
        <mxCell id="LtAShRvpwiNXkR26QhW_-23" value="move&lt;br style=&quot;border-color: var(--border-color); text-align: center;&quot;&gt;&lt;span style=&quot;text-align: center;&quot;&gt;isvalid&lt;/span&gt;" style="text;strokeColor=none;fillColor=none;align=left;verticalAlign=top;spacingLeft=4;spacingRight=4;overflow=hidden;rotatable=0;points=[[0,0.5],[1,0.5]];portConstraint=eastwest;whiteSpace=wrap;html=1;" vertex="1" parent="LtAShRvpwiNXkR26QhW_-20">
          <mxGeometry y="34" width="160" height="46" as="geometry" />
        </mxCell>
        <mxCell id="LtAShRvpwiNXkR26QhW_-24" value="" style="endArrow=block;endSize=10;endFill=0;shadow=0;strokeWidth=1;rounded=0;curved=0;edgeStyle=elbowEdgeStyle;elbow=vertical;exitX=0.5;exitY=0;exitDx=0;exitDy=0;" edge="1" parent="WIyWlLk6GJQsqaUBKTNV-1" source="LtAShRvpwiNXkR26QhW_-20">
          <mxGeometry width="160" relative="1" as="geometry">
            <mxPoint x="470" y="360" as="sourcePoint" />
            <mxPoint x="300" y="290" as="targetPoint" />
          </mxGeometry>
        </mxCell>
        <mxCell id="LtAShRvpwiNXkR26QhW_-25" value="king" style="swimlane;fontStyle=1;align=center;verticalAlign=top;childLayout=stackLayout;horizontal=1;startSize=26;horizontalStack=0;resizeParent=1;resizeParentMax=0;resizeLast=0;collapsible=1;marginBottom=0;whiteSpace=wrap;html=1;" vertex="1" parent="WIyWlLk6GJQsqaUBKTNV-1">
          <mxGeometry x="700" y="346" width="160" height="80" as="geometry" />
        </mxCell>
        <mxCell id="LtAShRvpwiNXkR26QhW_-27" value="" style="line;strokeWidth=1;fillColor=none;align=left;verticalAlign=middle;spacingTop=-1;spacingLeft=3;spacingRight=3;rotatable=0;labelPosition=right;points=[];portConstraint=eastwest;strokeColor=inherit;" vertex="1" parent="LtAShRvpwiNXkR26QhW_-25">
          <mxGeometry y="26" width="160" height="8" as="geometry" />
        </mxCell>
        <mxCell id="LtAShRvpwiNXkR26QhW_-28" value="move&lt;br style=&quot;border-color: var(--border-color); text-align: center;&quot;&gt;&lt;span style=&quot;text-align: center;&quot;&gt;isvalid&lt;br&gt;&lt;/span&gt;" style="text;strokeColor=none;fillColor=none;align=left;verticalAlign=top;spacingLeft=4;spacingRight=4;overflow=hidden;rotatable=0;points=[[0,0.5],[1,0.5]];portConstraint=eastwest;whiteSpace=wrap;html=1;" vertex="1" parent="LtAShRvpwiNXkR26QhW_-25">
          <mxGeometry y="34" width="160" height="46" as="geometry" />
        </mxCell>
        <mxCell id="LtAShRvpwiNXkR26QhW_-29" value="" style="endArrow=block;endSize=10;endFill=0;shadow=0;strokeWidth=1;rounded=0;curved=0;edgeStyle=elbowEdgeStyle;elbow=vertical;exitX=0.5;exitY=0;exitDx=0;exitDy=0;entryX=0.5;entryY=1;entryDx=0;entryDy=0;" edge="1" parent="WIyWlLk6GJQsqaUBKTNV-1" source="LtAShRvpwiNXkR26QhW_-25" target="zkfFHV4jXpPFQw0GAbJ--0">
          <mxGeometry width="160" relative="1" as="geometry">
            <mxPoint x="620" y="346" as="sourcePoint" />
            <mxPoint x="320" y="284" as="targetPoint" />
          </mxGeometry>
        </mxCell>
        <mxCell id="LtAShRvpwiNXkR26QhW_-32" value="menger" style="swimlane;fontStyle=1;align=center;verticalAlign=top;childLayout=stackLayout;horizontal=1;startSize=26;horizontalStack=0;resizeParent=1;resizeParentMax=0;resizeLast=0;collapsible=1;marginBottom=0;whiteSpace=wrap;html=1;fillColor=#f8cecc;strokeColor=#b85450;" vertex="1" parent="WIyWlLk6GJQsqaUBKTNV-1">
          <mxGeometry x="414" y="120" width="160" height="180" as="geometry" />
        </mxCell>
        <mxCell id="LtAShRvpwiNXkR26QhW_-33" value="piece[8][8]" style="text;strokeColor=none;fillColor=none;align=left;verticalAlign=top;spacingLeft=4;spacingRight=4;overflow=hidden;rotatable=0;points=[[0,0.5],[1,0.5]];portConstraint=eastwest;whiteSpace=wrap;html=1;" vertex="1" parent="LtAShRvpwiNXkR26QhW_-32">
          <mxGeometry y="26" width="160" height="26" as="geometry" />
        </mxCell>
        <mxCell id="LtAShRvpwiNXkR26QhW_-34" value="" style="line;strokeWidth=1;fillColor=none;align=left;verticalAlign=middle;spacingTop=-1;spacingLeft=3;spacingRight=3;rotatable=0;labelPosition=right;points=[];portConstraint=eastwest;strokeColor=inherit;" vertex="1" parent="LtAShRvpwiNXkR26QhW_-32">
          <mxGeometry y="52" width="160" height="8" as="geometry" />
        </mxCell>
        <mxCell id="LtAShRvpwiNXkR26QhW_-35" value="+ play&lt;br&gt;- type&lt;br&gt;- isYours&lt;br&gt;- isblock&lt;br&gt;- selfcheck&lt;br&gt;- ischeck&lt;br&gt;- ismate" style="text;strokeColor=none;fillColor=none;align=left;verticalAlign=top;spacingLeft=4;spacingRight=4;overflow=hidden;rotatable=0;points=[[0,0.5],[1,0.5]];portConstraint=eastwest;whiteSpace=wrap;html=1;" vertex="1" parent="LtAShRvpwiNXkR26QhW_-32">
          <mxGeometry y="60" width="160" height="120" as="geometry" />
        </mxCell>
        <mxCell id="LtAShRvpwiNXkR26QhW_-57" value="Yahav" style="shape=umlActor;verticalLabelPosition=bottom;verticalAlign=top;html=1;outlineConnect=0;" vertex="1" parent="WIyWlLk6GJQsqaUBKTNV-1">
          <mxGeometry x="310" y="1390" width="20" height="140" as="geometry" />
        </mxCell>
        <mxCell id="LtAShRvpwiNXkR26QhW_-66" value="Asraf" style="shape=umlActor;verticalLabelPosition=bottom;verticalAlign=top;html=1;outlineConnect=0;" vertex="1" parent="WIyWlLk6GJQsqaUBKTNV-1">
          <mxGeometry x="381" y="1430" width="39" height="100" as="geometry" />
        </mxCell>
        <mxCell id="LtAShRvpwiNXkR26QhW_-67" value="" style="shape=image;verticalLabelPosition=bottom;labelBackgroundColor=default;verticalAlign=top;aspect=fixed;imageAspect=0;image=data:image/png,iVBORw0KGgoAAAANSUhEUgAAAJ8AAADeCAYAAAAjH9IpAAAAAXNSR0IArs4c6QAAAARnQU1BAACxjwv8YQUAAAAJcEhZcwAADsMAAA7DAcdvqGQAAMKjSURBVHhe7f1ZrGVZmt+HfWee7xAROdfU1Wx2t5tNNsnmKFEyKRK0aFoULMAwIMDSi6cn+8E2DBt6sR9s2AZsyPaLARkQYBu0bIriIJI2KZIim6RYqu5Wd9dcWZmVWTnFdIcz7nP22ef49/v2vVlZWRGRMdwbUdXwijx57z1nn73XWt9//b9hfWutxm6328dTlrOzs4vfIlqtVnCv2O8f/3a9Xi8Gg8HFX09WVqtVrNfr/L3ZbEaj0YiqqvLvxy1HR0cXvz15eVDbq3ITb/79/3d8++/+v+L+Bx/GwXAX/cPj2HfG0Xvj98af/u/8O9Hq1u393db2p5F78+LvZypWwMY/SQWuqtj5lift/Ksqn2x7Mb0fH3zzN2I5m0e33Y7NthXNXTNeORhF84M34z/9d/+ncfLud2OPsK6i/CS1/WnKM4PvsgIvolx2viPvRZRPt13wnd99P9abdXS6nRiOxtHv96PdacXN41HE6Q/iG3/r/xHnt9+/+MbTl5+0tj9NaZycnDw1XUn3h4eHF389efmk+nia8iyqy/JJ9fGk5UFt/8rf+Pfia3/jL8duuYxGuY5etxXHt27EaDyM5n4bZ/fvxsky4o/82/+z+Jk/9mdis9lcfPPJy09a25+kXMr9qZlP5D9LBZ61jEajZ+r8ZykPavt+v4v73/0Gdl8V2+0W5uvFK2+8lte12524c+d+NDvDmG9RU3xfAT5t+Ulr+9OWpwLfVVDus5ROp5MCfhHlYW1f3ns/3v7612M2m0WVdatiej6NTbWL1bKITRnxwbSML/yJvxBf/H2/Wn/pKcpPYtuftjwR+Byt2hovCng+v40hX5ZI8jmXz2r727/96yAQE0LPb1fF4cGE69vUtxurNWy4b0f/td8Tf+Iv/VsxufHSxbcev/wkt/1pyxOBzwq8CI/WYgc48l7UqH9U2wXb7e98I/awXL/TjVF/EKPBMHqtbpzNlnE2XcfJrhX/4n/zvxcvff5LF996/PKT3PZnKY8NvkvKfVHge5Gd/1ltr9aL+O5v/1b+fjCZRL8H6O7diy3vT+/fj9Pzs/jFP/2vxc/8/qdTtz/JbX+W8pnguxx1L8qlv1Q3L6LzH7ftp7c/iOL8NPaoxNVixvXbKLZlvHcP7xa7b/zGF+Jf+jf+rbzfk5SfhrY/S3kk+KyAlGsFXgTjvejOf5y2+9nZ+2/zS4U326S+9WzDar2JotWJangYv/Tn/o3ojsYX33i88tPQ9mctDwWfFfD1IoHnyHtRBvZjt31Xxrtf+w2wV0SjXcVoNIjhaBS9QT+67V688nO/FF/+lT9OW9oXX/js8lPT9mcsDwXfpZH5IoH3ouycJ2l7sTiPO+99LzqxjX63GduyiB0s2O50YnR4Iz73C38obr3+hYurP7v8NLX9WcsDwfcigeezX5S6sTxp2+9+8IM4x7ZryBTYeSX13scuut1edFC5X/oDfzSagOlxyk9b25+1/Aj4HHWXFZB2n3e5fP6LjGU9Udu5dnHvdlTLVbT8Lv7E0dFB3Lx5I7q9TuxHh/HGz/3ixcWPLj91bb+C8mPge57I/2Sx8S9S3TxN21WvJ7ffi+1yxmseRwejGPT7sV6vYlkU8Xv/+J9+LFvvp7HtV1E+Bp8dYHlRwPP1ItWN5Unbvl4t4v5H78Ty7E6U61ncODyMJuy3Xa9jVizjl/6FP3dx5cPLT2vbr6Lkky8r8CJU7U9K5z9N29eLaSw/+n5Mhu343OdeN9qC7deINq/DL/1SjHE4HlV+mtv+rOWi7f9/4D1t2zeLeRQn96IBa2y5h/G9RrMdxbYZX/iVf+niqgeXn/a2P0u5bHujKIq9nfa8iw9/UbEsi8+2PEvbP/jaV+Nv/m/+h9EqzuNzb7wRh4fHeLbd+P4HJ/Ev/0/+d/HKz/z8xZU/Wn43tP1pyyfbfmVrOJ6kXCLfSjxtXtqzJKJehjOeZR3D6elpfO3v/Afxz//v/4c46Ea8/vprcXBwGJuyEe+cFPEX/5f/l+gNf3xW43dD269K7jX3PsdyWYEXpW6uLI6Gqr3zgzdpyz7bMxqN8X73sUaN9W/eila7c3HhD8vvmrY/RXlQ258r+F5055uIeXWqxhjfh7FZLj6+b6vTjka3HUevfz7b+cnyu6vtT1Ye1vbnBr7LQOaL6nxHvXbGlYUUYLj5R+9Gp92Kbrebhnu71Y6Kf8Nbr9jgiwt/F7b9Ccqj2v5cwPcw5D+vch2jfnZyO5bYffhsuULNBT2q4mK5iuNXZb7aqP/d2PbHLZ/V9msHn8jXwHxRHXBdo/6d7347tvsK5QvgiiKfs6t2sSk20e0Pk/l+t7b9ccrjtP1awXdZATvgRRQ7/7oEf/reWxGArYudp+fW7XRT/U6Ob0R/cvC7uu2fVR637dcGvssKvEg7x86/rlE/f+/N6HD/DnbeYFCr3WJdxA4V3Oz1f1e3/VHlSeR+LeCzAnbAi+x8HYDr6ny3u7j77luxLdc8p8pn+bMstzggg+gPhr9r2/6o8qRyvxbw/SSoGwVwXWUH6GK/jXa3HaPJOAajUexwbherVfRHB9She3Hl8y3Po+2PKk8q9ysF34tmPD07n33do/78o/diWyyj2ps8SmcDPCeKWrS9M7oRncHk4srnV55X2x9UnlbuVwa+nwRV+7wM7HsffF/6w98oAVwrBe6rgf3X6vbpi2szpR9YnmfbP12eRe5X1ksvUtU66mu76/mom/O7H0WjQu22673xilURh8fHMZ1OY99sxvNUes+77Z8uzyL3KwHfJeW/iHI56p9n59959+3YbjZ156HlbPu7338712+UFfUAkM+jvIi2f7I8q9wbi8XiqY0EMyvcMelFAM9nGj1XAM+z8/e7bfzl//X/OO79+t+PVjWP11/7XLzy6qupdu+cnMeX/ty/Gb/yX/tvXVx9PeVFtf2yXJXcn3p/Phsv8p9lq65nSQ3y2cbWFMDTlqdJDSqLRfzNf/ffibtf/YfRaZXx+Te+EC+99FIGmH9w53784r/+341f/vP/jYurH15+GttuuUq5P5XatQKWZ6nAsxQ7/fL1vMv8/G6spyfRgAFlOzOY3eRRu6faN6LZHV5caWFcc82u2sR6dRbL2Z1YL+7HenkaVbnESX7yeNyLbPtVy/2JwXdZgRdlZ9jpPvtFPN+2rxezqIpVLhTCv8XOM49lHydnpzEvNtHqAT4Atd+uY336fpy+81/E7W//s7jz3f8s5h98I5YffTuqk7fxWt6JzuL96G3uR3P3eDuUvui2W67y2U8EPj07Xy+i8Zbr6vzLUEmCZi8b7YCV0KpfGHq8DGXsolouw3yVOmulkZs/ns/nMV0tY9+oYnr3rfjBb/xH8d1/8O/Hd//5X4/3vvWfxfLeu7FfzWLHa7M45XUS2xVgPfswNtP3onH+Vuym78SuXGQdHlReJPCuS+6PbfM9CPnPkopteRK759Odr83zrPR/enoCpspoOVsBlbnP3m674bWNVsvIcQ28nYCMLVBrxOLuB3H3a1+N4vYHsVrPY99tR7PTijkAXJfr6GCIj49G0W714+jzX4yjGy9Fvz/OXQtkSO/V4PpWo0412m93sChAlkqxpVqTL3G/w2i2+9Sw9pqvo+2Pa/Ndp9wfC3yi3kp8OpD5vMBn5/vsT9pHzyIA77OawkBzVF6g8raraNO55QL2wnYTfM7Veh1NBzAAD9A0AYggTbW7KqLcLaLsAcmOOzq5ES59BSNWWc1WHB4fATeEB9C8T4JN9mwDdMFWcl+Ys0H7/IqgjM6Qzw6i3X892r2jNO6vsu2X5XHAd91y/0zwPYpynwf4DGL67E92vuVpBVAspnH+3ndj1IbLlmdRbeagq4wS5mqut6hEAFjJcoCUl5zXwZMVBI12K485cK3GHgCOD3tRdGEkWNIlk4pIYe0B4F7ng99dy9Hu9FKAK1Rzf9CNfatmE50VZ0gE4N6ZkhYsys9dAMZGj1H3uZgc/vgmQ88DfM9D7o8E36MqYLlu8D3KznlSAZiJsrr/UUzf+XqMu40o5uexX88A3Dy2OhHzVYKAh0UXVTp3Y28RmADqRqsLiHp92KkT624zuu0m6hG2bPMdWEzHYwOztTvdGF7sx7wFpKpZtbfzvnso0Zm3VLmAuuJ33RVuhffMi2cx2vJ+zpRsdzejO/hcDEZv5P0uy3WD73nJ/aHg+6wKWK4TfA9jvMvyJAIQeNN3vh3Fu9+K5gZQbZaxg7l4OKr2DNY7jza2134DeACcqfGCYtsHYH0YD0BZiwYgbPd7sQOcJQ5I/8DcPU0Cvgdr7egv7bpOH3sNdmvxvYr6l+phVS+quIF911DlUppcU+4KWG4NuODNBowK6zUaABX23MUhbNiJbu8L0Rt+kWvqbJnrBN/zlPtDwafKeFQFLNcFvgfZeJ8ujysA73H+/a/F8mtfiS62XYXHWRbzaMBUxfl5rJfT6CDyLV5sDwBtscPccWqLKm4f9KJ9NIn2ZBAbnQv+tQa9aA57sQVAzR6M2HOJpLs78Tf1lrWago53u71Bql1wzecmWO6iQ721HfeQnBjct7QCy9hW2J0gf8M1gq+pXQgIQsDth/z4uRgd/r5s03WC73nK/cfA9zjIvyzXAT5tqzTMHwE8y+MK4N6bvxWzX//bMSjWtXpd4pUCuOV0GrHZpIc7Hg1ym7NytQEEFXbWAaBA5geAETbqwH6dPo5JBzB0sfsARqOPHTgZp/3Wks3gy3a3z/dxSgCdjsbWNCsYrNOBIbHhCoAtoLp9wMV9kgEFIm1FadPuAlXPnRJ0suUp9RsiD5yYHcDu/ctxfOv3XQv4XoTcGX8/LD78cZB/XUXGexzgPW6Zf/T9mH71b0cTz7Y8vcMbp7E9O4ni7u3YLVC1CPhgMor1fBYNnI0+7NXZ7GJ+736slucAYhbdBgB1QyBswF21Rr1yXdPwiJ0nS65jXZygMRdgGRW+WWDIrWkDr2oJ5eGgwLglzNngd/Q930Wpl753zj0cAHjXVZlOTnOPys2s6Flsii1CmXEvgFLdi/nZX0Fot7nqavrnsrwouf8Y+D7tVj+v4tzoVQLP/fJOv/oPY/fOm7F5773Ynp7E5t4JIDyLQQsbblFGdR/P990PYzstYj6dx2w2j1WxxEYrYgk4q7k5e6j/LpYYdt4eJlvDoJuigD2XedKQatrQDBXnpY1a0I4FNqu5frZnAQNOcURwZHRg8bJ32JydBt/hOWUxpc9ngNK0JBwSvGSD3DvzBSuAuQeUjRX25Fk0Wh/E7dv/ASbAad3IKyovSu4fg+/SwH8RRca76lzAk+98NdZv/2Y0ilm0YK4SNlt8eCdm79+O4v55lMsiVotlbKaLWADKJoLXzltje22jwJZDZY5wNmQE7DDX4xaoigJHZcNPV621DZOgdtv8XpYbmGsHE9qHqm9sGgBmcFpbbt8s+R0wcf8K0HkQYHPP31sZFVbE7vP7zeYcqZzhqMB2sOtuR31gyyru8/Nb4PWfxOz0K7x/NZlEL1LuCT4p90Ux3uPaeE9SSpyK86/+f6K9uI+DsUh1uTw7RWj3o0DF3n37nVjfPYlquqQDdjEZj1CB2IQCpY+Nhk2Wmcpcu8E2Kk/nsVshbJivj13Xw4nYyXgAKF+wo4wJ3wJU1K1ARLWWsGMXgPawGXGzo4QRdwGgAOGqWGS4pt3YwcQMQJ7XQ1W393eiU96NYciIt+mX82iU5zTqPur6nLZ8O05P/yZmwQd1Y5+hvGi58/wXa+NdNeMZVvng7/3laN99P/YYth3suAH6bjDqxehgGN0h3iPYAhOwzgYVWANhATtulthxFXVawEolFtg5AIHx1nfvRXmCatw2Yw0LLlbLGA6GqR6z4DS0e6hlBpBJpmnDmeXCz4wnI+AOnxmGbu194dECNv0N3eL9poquoZYt4MJubKCmOzBgtwt7YlM2YeI99mIbldxurzELvhofffB3eN7TA+cnQe4vZIs0i413mwltvacpDwvTFN//Rtz9D/5P0cdgbxk3w4M9+fBDWGgB2GCjDSqMnzqTqhxLBRjW6zL6eL2DAwPJgKa/i86gnWGXxFinG81XJtEY814P5hu2o/fycSwzXaoAQY0Y9vqAGs94NITthhnj6zS9B5292WbqVY9rhGETG7LVx2XZatsBTkaDkZrNFnuuhSpuTmMNACs9aVi2BHzb3VlsSkyFqhnN9h+Mz3/xfxv9weeyDU9S7PuDg4OLv568XJXcf8TheF7lY6FfMeVvzu/Hvf/kr8Xi+x9GtURg2HWlIEV9rs6w887wagHAMSzY6zZwAPBu0YijXjcGnVb0W4ZGTIvCDBhuozEBU22cCMlyTFdhw+2qBeoTu4/7WH/JywAzNjs/LwLjjOfZdMboBnDrTSzn2HEA0dCKzCwbOtPhNN0O9QylAdQqihVssAf8YaJoj+t0YhZ8tvIp6Yy09pNwCrjR/Gbc/ej/9sTs9yIZ79Nyf+7gswKqp6vuAO85/fZXY/XOb8WNW4AL0DQBU7UDJNhio8ko52ilvG0gzJYzCyteBYLE2pPBSu2+TXTGOBrOXAAi12RsYMot6HK6rD0YRAfVrZOh2jUm13Y0c28BKFP6z10MGhXMy/cd5V5vEHqv8wHwuYzPEQLf8disbk/bsJXTcC1GRJ3MBVOXOCjUw3hhE2DmM/luszHFXPjbsZj+zkUPfHZ5kc7Fg+T+3MCnO39dwLNsZqdx/vV/BqVjQw4w+Lv87ONftjfRPkCfIdidBj6qddelHnilwIke2KI6F3H08mFMeB3cGiDyWRTYe2e3C2zEQ65tI+Rl2l0mDJgo0EClr1HlTq3pJSfy9sIOFQvbqYZlRZmGX/GKZb0t1xs6cfT7ExaExuybtH2gRGdNMsuFuhqobrZ0g2bcmnYA0g7gVY3XU3WnMZ3+Da57tOV0Gcd7Ec7Fo+T+XMHnw69n5O1j9f53ovzBN2OLjdfEJtrS2TsA4vxpG4G2ux3sJnhNE7fZQ+f1eXVQsY04fm0UzQn1ywwVOgk7rLXluzgdmw12W29Q23Aw4HIxj/t3PPpgFb1BF4HyPO1HO1dmxHbrwlw6IL0RTOXzaLv5fqpdqhRbvGE/cy64CTKt45r3Vps1Nt4uCrNc9IqcZmtNMBFu8fsIhj2IbusQtTsCfLSv6vC9N3GWvnXRDz9eLoF3Pf3+2eVRcn8u4LtEvq/rKHtG9NlX/m40z8+if7EdbYUAt8UGuw+PtqDxGxwIp7qctIcAWhj8O1RzdwgjNmChNjYebFgW2HG7bvRxDCZOoalysR1NOpXL2oLZeBw3MfG0qVMDWJdzs5C14+S7XYJofWEX+krwb7EZucg0Kp0cc/oa9A0iStbrCua0/WDsDewaGp1ut9YHhLSrxaDBHtxlug3fxSnZbL4Zy9k/Y2Dg9DygKPwXwXiWz5L7tYLPhl838Czrkw9j99a3Y4CRXnuXCEY7Cfbq7lA38yJWp1OcEGw6gNQfIMguHuYEICLHPey2mZtUuou2bNPgc0BVoI6X6ylAbcAwBZ1VM5eeqqDZ41B08RyMWXnSpClTO18MckMJAk1E+v8c/QyIps6JleY6bUVtOPspnRFZipexxE4bb7DZTXuzLBkgfGvHNZmitaVNJQ5JY0hbZeNfB4R3vOvH5UUy3uPK/drA98nGX3cHfPRr/2Fs7p4kqyngrQJbrWNztozibBHwlw6liowXKnlfRnfsvipt1JhxPWy2kveXJYAy5tbGS13lKZK+1oWzEGWUMJlgktU6qnK7byONNlHnZW6X1gaMJYy7nC+TCb2/bNzl1cGWU3Xb7XrGiqWibxSQBwUqMB2LwbCP+s4gLDbsAMDCyolYPfRhjMcHMRxOeM8aGHt8K4r19z8WdIKZ14sC3uPK/VrA98kKXCfjWc5/8N2Y/8Y/jiE2mYy1MVyxg0U2JWwGAMra2+wirAoNV+6LWJydpwOBEkX4AqSPrcj3UHnz2XlMz2bR4uLmAs+4QMDcuzMcRBtQVNx3AAD4NBowq7FDuc2533p2Azbk0zHfP+Q3dyqdTxdZpxZgEaCicmu2NOxs1jRub74Mm5gpbUzQezYbXbz2EcAFaNyraWoVbFdnSQNos2WwUZvNWcyX/5T3nVn5yQDe48j9WsD3vIBn9sfZf/53YrAGOKhGFZ1qy8n/LjZWz5AIXq5pUIqijQ2n3mxsAEIp41WxKfFarSaeZO+gF/0DDHtYp4Hnuu+gwgc4EL1eLADWEuZrYHc5rbpbAxBAoucp22pjNkxJvnBwejCWzzR/T/DLcDokmdHMT18yXZ/Pc7ESVzsjkjF//+T5Fep1j1ORDsa+h+qvgeo8cbE5ge2mF1OT/F18l3bfeWHAszyp3K8cfHbo8wCeZfrRu3i4vxU9VFUPFdoxPAEgJ+NBqsaqhQ3H+4FHa3Km6yPasIWAgSRgRqf2ujFHRfcmPVjRmCBMMoK7DrgOIJbYjOVuE+MbXHnArQ4AtACfLWMPq7kIqGmWsj0Jzg2M6FaYB2i4pAHwzZPXo3VAGGTWzlP92kfJVAjN0ym9j8A3aL0HfOsV5gP2KJ4RrDmm7qjqps8zEG1cUZZD1dPn7eYmTs9MOHgxwHsauV8Z+C4pV8/qeQDPsnrza1G8fzdVlbMBqp3+EDuu00hVJyJcV6ut5erE/mCQwd8Wn0M42HN4oYCkQ72da21g70FvsXH9BiznYqJYmdc3j8ZkGa3hKsrGAkCj8m6Mohp2Ystz8QPqhFJxcj7T24gOQJOV9Gp3XGNCqgA19KJjYj+5oXjJ35s1v6PCc2AgRPtSz7zNywD4Ls5xPO7hZOBBFzD8BkGjglutWwDaaTIXKM1jPv81QG2Cw/MrzyL3KwOfFXheoLMU09OYv/2N6CP0wxtHgA8WgOnKEvWIR2tK/B4tpcCKRUEv7WNZrDDOt7HazmFKVEQDdbWaRsOQzNmam8JYeMYdvjdA5eJ0RrOziMkNPc0KYQu0baznpwAaQtMGBFEVXjIP4GJAoyeNQIoFzyqWeMKtGI2w1QS4FYeRZcAB6E/GBGz7RCWmAC9VuAzi9Toh2ntZ+KzD732XU3aHDJwjvj/kngcA/4DPGEht1PDmnfr651SeRe5XAj5H6/NkPCQRm9MPIu6/GeNBj+fuqIMqqxkrVOj8fEXDYBh3DUW9FTNYkHdQCrx2McS227ZKVGg7Jjd7gAsg9GATZw/GUCIA2sA4rQGe7xinARW4WXsKuJ60ay1oKyDu7lr40Z1sP09Ldbsf9nL9raET3+dtvqddVtt7Tr+ZhGrML9Us9erhPLhwfA3zukpN5yS4d7+Dqm2i5tuDTM1yTlf13G73o9c9xBPGEWoaD0St773TBmfpW4CX0fMcyrPK/ZnBd1mB51l2PG/51m9Gf3mWYQ1BJwDXKwGBU4EQIR8noBBaO0+DlHbmqyVadZVzsy0A1p3gFPTouHEzOsfYUGNsskE7hjcODfnF9KSM6XkjKoBXlR2e1U8VaYBaG26Dw+HMWoXKTHuHupX2Bc/qOLvR6uAU4AahZgVUBQjXeMte4PJJWY4vphDSa+Yz54KXqwIv2aC2A8q54x4MOqZBPAO29oTzxr5F+5zpgOG5P8ORu6wZa+/y95Tfr7dchdw/c9H4o4r6/vDw8OKvJy8PS4v6rFKtl/H2v/8/j9b3vhPtfT+OX8LBqFZxchsVugCMGmEDrkOQTn2d3jvLnL7ZYpbCe/kNmC+KtA+tw+bc0Qt7DFsZ5ui4Ig309VFzZ1URw89zr2NUaTGAmfZxdDyMg6Mb0Rwcc1kznYvWuI2aLSBN1CBOQ2sIsGEvDT0HgPG+xWKRTo8xwo4pVfzksZTaE3ZVm1OCpfanXNoAUM05Xjz1o0mbcsbtHFKwcyXwWjD4XQCOXcrg0zHqdn9/vPbqfztuvvSr3JcvPaQ8S1rUVcn9qZlP5D9LBZ6lrO6+E53Vgk4AMN19rDYLbLJtjFCj40NtLtQan+1RyRUMZT1lJ52A0aQPiExP9+QgU93rLtAR6dKpZhf2ICSzzYpiHgOcjCFseHx8GK+8fCMOJy/hNLSjl8mkqlTupR1YLlGdtb3WwCDcwWSuMusBMFnS93uu5xUy/M2DYSjUrAABgemISNf8jmIFsLDzvhvbUmNeZocH94yorR4zJkHb2KK5L/zO15r7glu62u1ulOv3eZ5MePXlKuX+VOB7Ear244LE7//W34ud622dgcDz3FQl3uA22jCWi70VtnJ0l4Gy2qajoVqu11wg/D6A4AIzSjKpE5DudAhQ34Zr0IeMTrxGbL6+GTEAZzvHVuR+E2xCjz6YLebcswLwg3BnC3zjtPmCZ0CG3N+vXcxMiCn/5nrnbvND/5bd1DsCke+4bNPgc/2WYaFB2ndbcLRD7ccW1bvDy+Yx5RbQ80tjT5sZWCaZOte8rT6K+eJ3UNv37a0rLVct9ycC3yfd6hdRfP52cRKtD74VHQDXx64ye6SFwV4ZcivNv0t8RhO1uT7D9uEPBeva63YfBurwN3aUbcA/zuCvU1oylTl9TWhv20R9HXA9Xm4F9pao03K+zORUbTDBI0AEsOoy19p2YLU26hwXe+MmQulUlDgorsddMyQYIFYSxtobk/EeqlnvxPf1eive35RcY51tL/XudFuwZ0es4nDwPu22mPG83Z+nPFwX3Ajjl2hjmG86/x28+Pe4yrs8e7kuuT8R+J7FrX7WYgc48mbf+41o4jQM9HKRSG62gz3lRLxTWXuu6Y5UTxVM1YvxaIxth/pql7Fu4GzAlLVroDABHQ7BZjqP+el5quGqhYc7gSGHtHdoUinAbvINjP2moRdAPD4aonaxMwUJxn5/14n2uh2j4SEKE7DgsbZxMNzZar0pYrUuokA9y7S5bOACtKbUu54hoZYCxh7soG5hT8seIJtpMxjg+fYxCbowMQ6SYOwxkBrhSjqzpDd8r2AAlfgk3G17Eqf3fxuwXI3qvS65Pzb4Lin3RYHP55u8ef9bX6FzAYlzojCHW1AgNlQcdeO9rSGMDsIBjCXAMoXd1f1mMo+OJlEiUJM93QxoBdhagMSEBON6ZhA3uv04XzLCUXkrwDM1x85dqLi+AevpDCxRyS6VLNYua6Ry2GV7V7fxNSf693q/G+rDZx2cjwH2oUdiCbjZbJapVmZVXzKKP+3bNs/PWZAaixRVPjp9J6tpjTIouMaYZeUCJZyhFh61C9Q7XcyC4TBzCbudLWbDt7AXAeYzluuU+2eC75JxNJhfRPH5lzsZTN/7bjRO70ZHEaf9hqAVhEBcIzx+dFHBZrWY8u5KMtdQnJxPYz5fxHpRRruCFWf8xF40fd3YXRtmbIwHMBqear/Dz8PojSbgrxm98RimMXUJMG/cfxnwburDXwS5c8INvOYWDsvKnD6GgvV1w0idhj7f7RgshuXc7arN76pkV8DpjVtU37JemgC0SdvUGKBg3eJgIAH6oaKJFapbIGgq8B1zEPGIZdjWbhCD9i0AB1Z3BYPiXbzvpw84Pw+5PxJ8lyMzY1jXgPzPKp8EnnRQYuu1iymMsmN0m8oOI2nnYAfVKUzaJbsMlxj2qIVa59v1na+VSMoihqMhqpS/+4AKsK0AbzoD5TaqNaoSkJ7fw15cwZCwnoFe51f1JLrYdYP+AIbq5XEAJpfqtZrtYo5eOgEIzXCLADKobGKCgjSJQBb0e2a35KGB0iMsp92ZnjfdbJ198UDaqn3ZyJStXQvVusOrpi+6OCJ6vfvGGQQ545oN4F2hnnWsrMo07tz/5wnUJy3PS+4PBV8KlteLBJ4Cu1zXu57ei/KjN6OHnWPKeu0VIpYmzIdqdGWXNpuGoCynCssNdTyC1Ptt+P8MhvAFcM2kN8tlz+971Sr3bOCwtCvUlun12nHG69yuosCDBiCqWmN1G4EGWEx932DPMTpiAvP13c7MEAk2n3Zoak6fzcu2XLapVo2wJqXu3/oir/Oay+L7Lq3042ZrwN+YGQUOzbLeC6baoMrR+22ep4df7efUkba3FgC9oh++GcvFh/XNHrP4fF/PQ+4PBZ/I9+EvEnjJeFn2sb7/Xqzf/05UBXYMqtStLtZFGauZi7BROai14US7apdOhtNoKKisP3AAfLIS6rjtajQYpGzF8pwOBmwuU1TCm8UqyvNFsmO3y3fb7jIwhyVhHZhHxnUazEySAqZtmq2ioGDMEqZ1+kwnxLUYhnlAIYMD5sIJ2OGGJ/B4P9sHeAXMJcsl6LwXZkTOriEZs551rExa6DR60W9OGExuPAkQKxh0cAsWPOZerhGepm3b7/A3PYbxEc3dKRrhG9l/j1uep9wfCL4XCTyf/bGqvSg6EusPvhstDPxOy6RKrvOlWkOgLsJxcl9P0XQkvctcH+FkKD8VZhOHoj3sRedwEMOXcTzWsMgZIL57Hg2e1Z3w3GPwcszvvibuKABIYD89y0lnEv0Yxc5kmS1qFXRUCWiTCQCDmQb0ZgunpIczIWNru9mH7u0iQ6qStUE9Ft8wjJ/5nm31p3O+K7ftYJBo7+UqNW072un0nKaG3rLLAMzQyWwdBobJCvtdK2bzE+qAh+vGQvt7gHET89l3sAMfL9Plecv9R8Dn6LusgLT7vMvl8z+9hUZVLGL69V+L3QpDujCzROaoQxQuJURyfEfhqYYBG++nQ8JrzWcFL/DibhfptS5RmwaAzcszLNKgrd1xxOBVgH0TZhoBeLNEYBvgHW1U2K6lF92I8cE4wynmAzaopup1xwBwqswdSdsXoRTnaN3Baqv9Sb0vd7cyFV+HRaco2e6y8HuqOl75PvKvNyYqUs2bnKC4DD7bR9p3uz0mCOzrbE0NGO/RzHjlen3O9z+Konyf5//o+o5Plxcl9x8D3/NE/ieLjf9RVfvDcvrW78Tu7jupTrq9Ttp2rpvVy93x+3Q6R9B4ggjWznMe1znQNSDOoC0AXeJQ9AQO7Ohqtg2q0fd742GUeIy77gbAGR5EmCVOyEo25XnYZq0eTkxzxnWnAHoevaFTWzgSOiOAz2wU6y2baXOa3ClwlksYB+CPVIfanrBjzvu2rB+KUVXsLAv1cGrOlXA6MKbzO4Tc8coEBFV07ZDU/eQz1ivbb3zTE48ADsyn+jU0s8ejbxmUdLeD6l6cnX8Dmf54v16WFyX3j8GXjaK8KOD5ehDwpID7X//HdDJsg7DVt87Xu29eT0EhQDfl6fVhMOdWUVkuU1TVNWGE8XAEaJuZ32dyqNvhHg4PMhXJGYWyg4346jEOSB92Qd0v+1EtuzDiGLWqOnRdhHbceXrQ23IVWxin2dcwBwAGdvFyJyYScG/oKNsx5G/nkmlYsrAer393M6mgBzDXANz5WJrIfWhVJkQYQkkZ8Lp0THrdfoZqdID8W2fKBeQGoLVBXcvhLEe7cRT97iRG/ZdxfNw91HXHJ9QHe7l4cCLBC5V7/u+iAi9C1T4aePgWZ7ej/PA7UJIZyc7dwgmAz86q9G4xrG/epKObeqRO7G9hRhcHaXu5/zFtkw1hPAPPOgeyoTMUquDhESADmDOc1s0GlbluRsfQydoVawDb8AnPHvbHAACGASwlf+vY7LW1uFfLaT0ckC5ASEeCVwLFrGmY2sXh2qDuWK9Jket3+b7euB600JP1tXUNC/nTYt3zd9qaTkvObtlfgTdruAYHK+pFQ4MugOuMYeETXtixvNdu0N79eSzX79AnH/HdHwXYT4Dcf3KBZ2fd/+1/EM35/VwVptpSiF7tgiGnvEwUKDeGX6g/bTD9XMZzZZhzrBlCQbAGpBV4y73yYA3DLNqEJhO4mXfbVWLORNzoRe8lgDmqZxoMdVzWr4mzAz/l3y7aQb9p/cGqXKiNh9pfFdhi6GtTrwTZBrDl7qbJLKq2Og43NrsZgAgSMbF2i40LcPjepVy8XvPC5nkLxaSHjoeTpoUr2raYCbk94G7IZ2MGEW3fLABjExakatVtmPZt6vVDW/onQe4NDNr9VU8YP07x4Y72TzsXnyyb2f145//5v4r927+N7QOTTCaxmJ7TwaYryQqw3wz2m7reFiACTu0u2UKBKVezVgy5rFeLaA6bMTysp6PWhW0GrIDYE4QqHAx4Ljd0xCmOTQfgoHIHg32+NtR1MHkFsB6ENd41VzEaHwCCHnbakPdR224Gjpp3QyBDLTu9VF6uYEvPm98FkwNG89CFQ8MxYAZVTvUNnWmhzoIvQUnJH6p3gM7/+UOnoA6Kw8Gx2WrXrWk3DMp75f5DKudsCR47damC+u5cZvAr8epr/ybtvZH9bnnRcn8h+/NdIt9KPGpX9Xtf/wfx7l/9P0f77v3oT0apvtzGlt5EaAibjt8s5jHadWOzrPBsMfpdRIRxLysMYDk9zS0NhZcAFEq7jX3okVWAWWG6C4Vl7z4tsGpxPgdMqyj62G03bkRZnMfNQximj0CbsuOt2BiE6znFBoliY3VQgTsMfVOgdrIRqtMbGxpxfYa70js15sCYjCfUhdogd8MmwxEDJiVAnTQdLmw+2bKLqSDYmtq6/Kdd6KBym1xnNIxBlqWzHtQDcGvz3p9+A/OEOvFdlHm4p/iucQuw/gzmyV+KyeEfTOZ+lh3lr0ruNfc+x3JZgYer2rpU60Vs7/0gWkjJ2JkH5+02ZTQBnltgrE4B3qzE4xwjBNkENnT5JOxRqKZ4hjaW8UB39OSpqY5Ho3EyZH1qZDPm2GqufvO6BmoJfxvaa0QXh2S9WEQb1lrz7EK9h4rGrAMkqHLAu636eLXOfADuBuzbpH7Uo4UTIzhqTasna55gnbFiYNlgdL9varwBZ+7JdU61GQNMEPJelVN13gAwqmr5zfrm5/r99IEerokVO0yAy2m6g8mr3L8Vq8xuxjFylQl/u9fzfPY17ukznn95kNyfK/geF3iWJcCbv/PdTBFq9TS6BRFGud4dv7ewscxG0RHRYNfD7Zr7hqGvc2GcJKmdjnfNhSEMQzCGY0o8ZJlFe8xZBAXrNhmb2Tx2C4C4NcDr+g+EvEXY1ZDfj/F+AdoaG84B0QI8MiyMUxg3pE31wh1V4hp1yAtW0i50jYkZzQcHY9pfz3J0aZO2n4onhcA9jYbsAZUzKP2uK964ABuz3hYD4DqNxvdlRuDPZ7vwLLf+gDZi/1Ywojuj9rqeculuDCuAp225STbflO/jcN3zac+1PEzuzw18l0b04wCvKtcxffebsbn7Ye6xUmbsrYptMgMqZuCKLYABC8qGmWHCq6Ee1F6SMUxr4qqVae48142dLuwMGFDFt4EZNhlj6wEE18eKteEhYj4SMNuc122aDAoDqrpbOBwK18QC55L1pt2DxXBHph0xIKQ7g8i5g4Gqkr+dvdBbtQ9+aOAn5PN6YWTf5IxFfnZZZLn8NH/P1ycu8F7GKytTnWE+08d2tNvgeBfQNfawPM+oKrRE+RG/ncay+K7frG/wHMqj5P5cwPcw5D+sVOtVLL//O9HCnlth43WaXbxBbB08Xu2kOYBSdO5z18DT7JpYqtfLuytDHwh6z/U9QNHZN/PMDGcWID/Uay10heJOoGAHpipgtQI1iDc83kXvFvaYcTzu2G/LsLAZ19cB37otuZ0GMjSgrPpMNgIMuRMB4L+8TnD5L5mWOlwC0tcni/E7Q0n1dy7e/FQRbKpwbcG8jnuZ6ZyBapkaGzMLJoBBam/E22iDAXWbUefTKFZvMRiefvHQkxTr6Othcr928Il8DczH9awUyuydr0Xz5G5U02mMhsMYArgBqrPLfZbLeapR79s2bkfjMLlhrk6UsxUqGfoSWusqipN5bJeqHFWV4NUT7mC6wZLKjkvbgEwvU2DuUW872GK1PuaF8wCgu4dmQdMG2FeVuq008GUovFQGg4Flg9xOeyXL+TfM54rMRnqldLwbATUFg4wqE9T0JRg/FoysCJoFqW3zxQ2ELR9W2K+rHECVux01akfEMI87aml+eLnJpL2OazwYsNi1IzegjCmfFTF0VV0DBl+/gxP2DnW9XvZ7HLlfK/guK/CocMqni47G9Jv/PJand2OrSkGAqspcnOFINtbHfd2nOEMqfLaF5RZ4taZK9Tt9QCEYYQPHPyovdwsd9DObuUKPK6gOwBqYBNpT9ZqGju1GR615lB6yJwlpT3lemomheruNLraiB7MAd2oAnuppsNzeFnC5XiNPKZch+QSUJugFj7MRLitfb5YAuO4P62//WC7VsZiQKf26v/EJ9y1pE3ehC8xd9J5m4hhU3rtbeWY86wnj2VeznN3Zlr5X7+G89liu6ja3uwsT3ovN6m3uOfMB11IeV+7XBr7LCjyuqr0s529+NeYffgv2WKQtJ3CclK8K520ROCCoV/sjnX2dAt/cGKFDDcJqJb87Z2pxGsp6aINpA64Xq5ifTusD/kCZDoS7P23xbnFX0xN1777YL2EKbDwEB98i5GZsWgCgNTI+wqUrQMJLO8+68HRvJtOpbp3vzZAJfxt7yyCzDIb69uVmRnyQKsn6WfxdMGYW88X7n3xpzuq4FG7tsTGGqf3o/s9StompghTbbu1hMdjEO+d5AXYTc4J+aTVGvEwdwwTZfv8iz+8h+v0ZStb1MeV+LeCzAnbkkwIPVMTyG1+J9vo89qslHaoTgFAAURvPUu8yJ+vzvrUBb4ZJtUaQqNnqdB4VADM1Se0r16Q9ZthiWUZ3iyqq+jG9b8Il6nWxj7P7eKrrbqzmMJJrMngJJsMfsonTs24sJJPuy6PYFj2e1UsHaIkjMj+bx3K2BDCoP4Ap6KyX6f0GxvXQPVSwKqQu7yn+GCrUKUMs4l6g8ioBZaop6wvjViXtAljOQ7cxK+q8PtpDO/ZOBXJvn7sr+S59UBaNmJ3x95ZKN91xi7Zp/wLCbusAMlVRe8bHhzGdf5NufPBWuk9bnlTu1wK+J1W1ddnDer8ds/ffimI2TQbRubAhG3TOrAAcgPHG0TGdCY9gW22WdB4C6prm7gIeN9oTNABWu9BZhi6A9RiCbteski4Cd+50ELc/OoUhmzHqDrkPYOw2ot/D40SF5rEGCmoLu2xbsVoi7BWdWy6jje3XVLi4z5py6xXtBEECJbfNADwytKvW1iU21tbF5HW8scl1+w1qcLmK2fmU52Mr8n4N9Asw8v3LKT3b+LHN5PpPXgrY3EVB1+0M0snQ9h0MJjEeHsfRwS0+86Z+D299N+FeMrVmippAU2AWi+JrvH+122o8qdyvFHxPzXiU7XIa97/zldief5TqywwQ1e4Wm824nMdYGWBW/brvss/R63NazU0atQmNgSH/aGN450Ib/ilMhWa+nRMTxgyPjw/ipZcmfLaI9dxNxPfRH7VjcDCI8cEIHNTzsnq0a7fTcHkiz/HoKrNi6jw9bC8E6lYYrsfYAwjndgWeoQ/Z1ym8yjghDOUOVE3a4h7OhmfsKxMcdFJkQpdwul+LKtK2KUhVsEWV+knvuJ4VUr0PYcQB4KZ91EG7tdNzY8za3q3KVgw6L0evdQvVj+lSeZ7bnHaf4PV+N2bz79Q3fMbytHK/MvA9C/C0fxYffTuW730t+thE8o4dbAhBdpAV+jBOW2ZbcH/BhrpSTe0ARcAm3ZaqCa9PhCH0Lh5hPfevGLCNvBZPc3jzCPWlLVfGwbATox4CM7kAkDYyygvjaLvBnh49Xxm64V5NPjLmaK4ddBjlAsdjWQEq3Ig1TgvNAGa1LUqVMi7Jdx0UqlBBm4cFGoPkuj4OkFk2Brfdxs3kBqficsBcgK2ugzZhDTzXcAgyB1nm91081e/IkiXOyLpgsKIQmi4iDx0Sd7u6Ge3GmLpr9wHMPYOkvB/37v5TnvVsqvdZ5H5l4Hs6VVsXPdzZm78erTwlsogedg23y4bJGF062lw6hXIZbBZjAsrZAluhB2mQ1rN0qUg0AKgryswEdtajpwzXRZx9eDfKGWqr4BnYTc0KJwXBt2ARp9UUaa4sq3wmt8ahceK+gfos1zAHdXARkTFAZ4cNuogP224fGOuT/cyqgcOirfcKuNB8aEKDioZUgItMxjXVHM/0fBkd1HYHB8LgtFBzCs50q3p9MG3nfUu9MIkG0y8K3JR7s1waDJDFTCDewHy4mTbewLPjWtTF7eAcZNiuOi0t+rXPz235Tpzc/y/yvk9bnkXuVwI+jfqnQf5l2Zz9IJbvfCOXKhqTG/YHCA31RAe3YYrVfBbbDoAZMGrpRHG0xE7TIZkVfOa87mE/9h3UJRSlse9mjt1BJ8bjfqYX7RnhQ5iv77yvBz3PAehaQHDPxgD2YfRWCB9jvgSEPD3WODEbPd7spQJg4BDNz3kf1cWXt3i8zvN2nNLquTuoYMA0YICsV0764gHzu7sXbDxQ+oTv6amCrszP49459Tdw1ywAyb0Em2o9g9X0gc6C87OGluxjB6RLBeqtdO0LX/0cLLajx/2wT6gvbdxoNtBO7tHhM8/11fs29d4T0xtN2O/e3+VZnu325OVZ5d5gFNec/hTFba5cg/pMFUDNffCf/l9j/bV/grd6FjuY6ujgKAG2hRVKHAmzQUbjAe/p0cFmU4RoOEKBMOrcCd6JekMQhlVcQDQc4h1zE41vd7LaN9eABAaabTD43dOPD03JwsnoHw5zpdrWICwgc1cDpIy3uInupE5IbWHAm5BgS10nMZkcIsgelwENs6VHgyhRk+7X51pbEyEG2GMdvNQm7IzpVzOaCa70mSEbr8nVcMDLzBfnibeYHTKpzoH38f5eJ01o0yVj8p4dtMGpcXamQztKPNcKR4J3GQR1JGCLU1TtlzkNaGB6trzDwOwxSJdROEBwnKq4GW+88j+Iw8M/kG1+nHIVcrc89f58CkTkPyol6rOK+7SVH30z3vyr/8cYze7EerGMAXaQgWK3xnCNagubxTCE21uobgVeC0fAhueOTwjIeVu3OHOvkiX3ROdEH/DJPOYkhCGvPgwFM+2mRvmdI4Z5oCC3wugfY3t1AeeA+zU8adx7w2T8wwLIGJu2l46PNOjmRJ5Y2WyOAAgeJ55mg37Y7GE4BgtQTTbsN/W0UYn9blQ6AdQ1N7M8mETv4KAGFuAEKtynrs+O512uWPNoB0GUIGWwiI1U7fzc8R1VroFl96CmJVFs7iUAPezQ9nmCJSOUl1ZhRnC4igHbYIBupgnAXXsU495fils3/3We89myvCq5P/X+fFbA8iwVsFTL87j3638vuospmsJ5VNQXHmwBCN3vBIpBJTC6+Lk2uIoKaQpGOt09jfsA1Uxl7bztAgZAuMMUOkyD9+hnOgCupW1RVzdQxMCE5VawDyAZolIBpgkG+ws1CnIBdr21Wp5SKbvCps6ayHhumQHBYUf5nSksycvtKXheb9+OUQtDH/vN35sKl/e37s9sHiKAGUzGsCgMiVreweLbJWCnvf7dBtuGmHzJbApIxOkMrTx0mkGTW4Hw8n2D2YaQGJq001OLhrztHjU4cDzPEzXRH/Y0AxP1z33TjgbUve4Bz8FGbjNoyjcZWKbZP7pcldwvyxOD77ICl9NBT1uc9pm/+zvYet+K6vxuLM7PqUzNAL4KRocdparR60sA2OleAzMY9tLmy+kt3u/IFAZnsRt3zoast9FH3Tgf6h4qy1PsHZ87hOlu9lCTMOFoFweHhwixn2no+wqVtO8imEnGFJc4Qmo8ngT7ASi+O5ogaOzPdBzc1aA7zGtLEx/wsk1osC4VQNHu86derhuX72BiVaYOjRsU0TJI2jA597J9DhhurSerx6wXmYuSKIaeMkGUgaSB7wo+f1dlpxiNAQJCQy+mb/UZVA1Y3HW9dRjGaThYB41CL9FmGG9wow777E5jU7zLPR6uRq9K7p8s9R0fs6Sx60i8ggp4MPP+B9+JmN5FqP2Y3NBLc0Oei5w1rzELhEfhl2YcLT1J30cgufAGdvKAvpUgxOZyEx/ZwG+3EFDpLvQY231A1YZJ3URo3+rFYPhSgtJVZx57YID6sIHqnDX5u4B5Z/ipe9Q/sICBrI8vkwe2+04ede862pzHRbX126bT8x4eseuIMw6Jl+ygsav0et0kSLA5QFzywfhJ9nIGQifLQ2NklC5OQmvdiB7/OjyriSPRxguuN/6uExr2vLcB5Cs0geuVHayGgFw8r5nShgVdPlltUbsAEoyCaD5r48y5VzTeuHEoQ0HlagkAdZC+wfUPDjpfpdw/WR4bfCLfCjxudsqjio2fffRmTD98K1aoXPPkEGPNTADLif0RwuhhW2jLGBoweyM5QmECBFXT+GgCuPB01zgSqhm+m16gQtYw4oYmf+bRVmfrWN4+x9Pdx+zuOZ60e7hADwh6P8VIP0Olz1DTU1hhCUA2rYyX7VChdQ4gfOG1G3cKbcE8uCNoxQ0qbrPk+TgaslGBetRT1ZFwyzXjeemdUh1nbBxETrXlXDUvTQPNCBGSWS32AeyYW+TyTFnRNmeaFgMrZzOGvfTidZq4NO/t/7QHa+3At9yxtPS7ihgbtgKoevo8w/4vUekOktyJdX8OsFzh9ibX/mi5Srl/ujwW+K4a+eVqGqvbX0MAZtXuMtLvFJkj2FX9qiU9WWcPZAVtHmN2GX6oULO8ZJWC73UQ8gEgaE6LBJ+zHt0uNgn0Mjngs0M6WAIQsNg63aodQ7RL2z311l0cBIWPeNYIZIOAcRIMW5lsMO7dih7qSZ+lBWhaZqNs5ynQTts9VDyDV1Ohjgv2emM6i/pqrwIa1aLCk43TQaLeGwCqYyXrOrNRn0bO7wBotcTWNT6Jql7AyLY1Z2godEeqW+XALWkO/YPTQxelFNUE7mBvTFCg5Hw4bdGpyfw+EJyDm386T6aneUhhw0RdBpS7HxSr365Z8aJctdw/XT4TfJcVuErkL2/DeN/7JrbevRhhy3iKoupodX9GpyMAnuV6BkMsKtrFbJ6xM20nE0M9q0xHRBBoJ82rFTYNxjdSWZ4v4/R+vW51jkAKkLVpVjF67SaCpONhqv3KVCyXGGIPNXmCehCPMRfq8PdgjM2EetpWxhIFeAcBgbsFvwOYcXOIMjumnqhSvmMW9HjQTjWtgO0r52+rDT95xkp7DtW+WzLIYKWBszEI3aTXoP45Fcu/es8ZdACy7stK3luPfAtDMrBc+J7TcIKVJ7kROdodlqxNEv2p4eCIHsOr3jKA3VCIfmjSpk1x11EfhbY1bej3TOU30My9jRHSwPX6/Vgs62Pzr0Puny6PBN9lBa4S+ZvVPO587R9GeXZCo/Fw+33U1ipmJ1M+W6e3a6zuMiVdNZEeHsBTRdnDruHtAbwBrNPn+p1hGEassx9OvTm70QPUbWyokvqrm6Y/+CBG/O7OUjanWqCGUMcbv9PFFjoaRBsmcZ8TBVnb5ytEDJtgH26xxbrtEd/BEUHFq9qNdeVhz+jnikHhub7rs3lsPWa1oJ7UwzUhu9NFNPmsx3e7AHjHNZszzA2dEx0F2upOo4Yw3LHePtd9kOmT9QUWtVEONkdQb1YMGhjccz/sFrcB6WCqGCQ3hd4ZjXaHtjUMxzhvzABaN+Ng7AmWDu4FgJxTf7zsntnijru7MZ19hevd6f/6GO+yPBR81wE8yw9+6x9Fde895DrLeJ7qsOnUEvqjPxwy2vEAMYyd13VEm5GikN35yZ/aULkReL/HyHeKqcosFM+lTbsQQYzwcg1bNFFDPe7dQljajWbHwEEIEladTvGMaZuB4OE4FttVBqPd71gJq8J2W2xR1G+D+zZ4Ru4cpSpFeNu9WStTgFAkwBorHogd2IfVEHvMAFi3aEaP7/cZKA3zDGUtvm+93d7WHfRdb2sf683rBPlTICqYOjfQmCF9ZFsZdDn9BmDbPgdbuXIWZllQRzxk+62nbVlvXtmiExqASxPFxNneiMGwZ5DAfAI3Tzfiusq9avY4G6Xbzt2L+fxb18p4l+WR4Ltq4C1OPozq+78Zsw++R6ctEJGTWAiWhho7c+uvNizUG2C39fUWWzgk9S5NbmHrtJHqokTdbGEpA8Q7GK5AoG7UiGgDbcZ39zgs6CMNepit3mqM+x2Mo3VjHCvu0x3hPcocgCY328FL1DP2TFxXyDUyZaqBA2F2Csb8xiB3O6aLXSwBR7FAJU9htXPZbhXT22fR5rP2HC96KeixST84QcVTK+redVsOQ0SCF5A0aUeTdjprYhFkpvdbtNNMiDXtShDkkfj8dPdV93MukYuv9JRpV67vVSmgttOBoGF59q5LKgueUU7S/qv3gaHtaIrc/6Xdz3hpR9VOHzvp092vcUbeZCCcZl2us/wY+JLyGXFXDTw7/ewbvxabd76J+qORdDCmSBrehh00oD2qoDukI5FH48IGc2dRGQFuQBXi4XpslTG26TKKu2dxcvtevPTG61EioEyp50pP4nGth/e12CbV+PTuSazvT1O9bWnjAAYdtksGw/ejC0haALENk4QqEqchg97OuACU9ekyBp1hvPT6zyNghIkaGzdGcczvh7w/wdmQtVpOt+C4bGG6Lkwty2yX65hNZxk6KkzRFzjU13pdFqDO33U/5Za+vDdBE6h+fQ985JLQLmA1ZKLnzAdaFPg4gNY+hBE9INr7aivSS7xfT7kZVdQLLhlAq4WqusIWPUX97qLXOKSfuzC/YZczjNvb1P8DrrlaDHy6/Aj4rgt4lrPvfy2W3/oqNg6qgBErG9k3OhKObgGRJzBSoy1A3KAXnKRfLlawYRNW7CE4DfgNrIbqRcBDHIEDvM67b34/41u5sJtRbT7fGsEkawhIVHMKz1gbTNZYmI3Cs7pcj7U/QmD7ufvn4YmiGjNgS1+YEeNuUAq2fWOQi9HPPrgTzUUL+64Rq5N5LE9OHSvUkXv3BqhSBoFMTnsWMKT1zcxlrpHJNSPqmCE3xawwfUvVq10mFHO/ZRyLinosz10AVeQAlY11qryHalRA+rvTcDJenYRQh3625hCiUwpDRk3XCtdido1Jv+9hggwmTASn39x/GoEDvgPMl0McmDvYz+/geaN68eyvs/wY+K5D15fL8zj/xj+K5Q++h4EPsDDE6bZkCke5JR2LzRrA0RlIoedm3VaPOumxbRC8H7itmYeu7GUYPh92UBtOs/nXht7H/tqkQb+MuYY+ntywO8EZwfbhewZ73VlUVYWF5WlSUexWqGRssRFeoSoLdbhzfxUApTdpOpNsp04fYFS2eE4bey7WrYz9bQCKyQwCzVyvHnXqAYrD4SBXlIF7HgJz04RMhqCNgs30+Z2BaG5lWNJwiUCgmglAQ06CUAfLMEttIyofwabGYAChBdI+1QPmJsb3msGLz9pdrm3mDkL0L47ScooWWTOQPQldWxI7egJbtlXT1oH+2C2wVt5HTt+LdR4kc33lY/A5iq6D8Sznb/1OzGC9Fp23RyU606AxnWEFOthK0J31TzqwiTTc0bPid8MUHk2QU0SoBiznWJxjNMOYZrGYavTqq68lQHqtThy//CqdBpOI4aoN8Dcxu+PaDrADE2yXfs9Atkmi7ez0gu82eiM6AZsT0JjB7L7Hq1mtymWW+fSM+rnVWgfAdwAh4NxjB5ol0h6ko2FEsG/gTfAMzUnkedgWZpUMaLNhGgd4HrPlZuSiDGZ1MyNtBD/L8BL10bmxLrXX7wCAxQFgTj9iErhN7o5BwLfTs9eesxhTbJuQ4LltDLKa9WwPKrs1hj115GB/+5qX/aod6J7OOmKyoeq72n0YK+N+ZuReU0nwWcHrYLwsMNpb//ivxvrkHo6AKTwmBaCe9EQRSrGsU35kohWj3JmCFqN3P9/G4sNTDPplzD66lwvAl9t1nOKlOudZz23usKWm8c1vuev6Klaw6Omd23k2mkwClmLYo7NXy9igag1P5LkbqD3z6tYns9jNSuozjilMWfK7ib3mF1So1uODL0Zz24shQuw1CoS/zDT8wQQmNUu0j113wOABQALFTcG1OtueZonhPq+w7xB2ie3aG49wlPb52vK37ahgy2JGHdYbAEXDAZqWmdOGoC3l4pSbINmucW7UGDKeahzwuXmlO9Pn+bw2GHGKZ+wJXqPod24CQPeHrueBZWHNASMLe+rmFKHTg67k22/dYHICax9iTwrAWZTVd+Pe/X/GDa++aGbRvuux8bLQ4Hf+/l+Oxp3vwQnujbxB8HiBmS5V5IS/QHEMqrqShXg/Y37zVcbw9MaGsN3ZfJoxwWOMe9fGpK2oMOjIbEja3AiM8etaCm1E19tWqJvRyBQgvLyOsUBUPapLw32IQ9GXcfEMTakfwv46GWYel9hC99+5Hy5vLeY4Io1hTmvtcFBWtgPVBZnBnqZQAYw2IDhA+CMYjSHdpE+tnxt8LwWZNp2xR+qaa4m1/wBsLvqWrdQAIMcZBoEi88mG+eL93KOGRnrP3DGVNrqntDsdcGU6NmoS0748Mr/a2hNmvDAQqeHl0RHaix4o02ztMnnD9CtVsDt+ZXoWg3XIAEvPeHcXGb6J/fdBivOqiuSRszUAz7o/VfmsrbKq2+/EB3/lfx/74m6eYcb4ijZeZd8ALAKgi6OPXeRuBKvZAvtvnSnvhie2qTpN+nSdLAJA0E7Wm+28X2zyeroxVdcCO2YCG83P61VvRh5Ue+jCKFcLwIQ6kUkAbYYotHeO7FwAr/3Wp158hxqnGnRfPQOG7s/sHtBuuuPuV9uW6Vg9nt2Ko4mT+yXeo3N3jRiOjQOiVmHtLfecoOZWCLlwBwucmpdeeSmD4M7VZjzO5Ngx32UQ8K0EmXG7FAdt0FftDwEOVXG+2mdh1uUh0hKdIRp3PZUqBZXfE1h5vALvOTNTAqZqfxfwf0TdMDMEvGaBWc44Ork7gskWO7QDzy5T3WoXt9Lx2gHciC9Ff/xH4/U3/lW+a1uf7axeyU4S0VtPtXsdZVfM4+QrfyvKqRvU0OV0joHfvWEMH4zqsSJ2XL0Wl45gRPcEGMI3yOzZGnqpBlk7qJXdchVNVIVHe7q5Tw817qHJ7leSeX/cy/u6hsKpp7K5Rjhr5IrHPESljfn8mM69ASgbGPAIZIOedXqs36U+AK9lwBmPEYjWLIHNZi5dc0e9YETkBjP0YzFz3z+fxUsmXgCsFZXFC/ccEBHgmuMhdRxPDBfVc8/O5bYBll5tztjIkDoTpl+heiW69JaNBToQ+JcmxIXQBI9MrwbJ4kDxc+xIExi0gw3n1IfHAGsGgTE97U+znt2JIRey54p5bdAq5osZz6Zu3EslaF826Z8mWqPanmDOfDPOz7+TmuxZiuC3XJp41wI+1cbi+78Z2/vfiwYd26ejJowadxa4MT4EZ/XD2wDMoIDHTslieomyn9Nd7pOiqrCidv4Sdts5NdZB1fD5AGbLQHTPlPYxncTI5jkC23y2nGjnvT3X7A970Xp5ENWwwv6i842mVjgIRy/FwUsv8x1TwukKHJQGwOsyAKZ38AplXexMwxi3f/BhTpehnyBH6tBg9GrEUxeBsIGJu5tGJrZqCjQH7dwkXDXGyIo5tt1igaMEO6YIYf70ZJG2IRQzsf1p3znFaFscRCYBqAEsl8ceWDJUQ/FzB/Hl315jEFk1npxI3XUqWh3AzoB0CaUDKq+Bxf2+++F4bQ5eZ0UceDhSRgc6bYAc78Zs8bXYbJ5+iw2Bl+aE6L4o18N8q/PY/eDrGPMeONyICTabrCd7lcbvBAojO/fUA4B2lIPK5hskXsI0xqJ8TxWyRHX2nZ3g+x2Yo1SdoUPXDfdZ0RgHvAIPUHmM/TIK1GQzxm4zK8PS0Q1Zi+9OXP1/jj3J06Z3TWI9oz4ypV5gbVe1+fvlgxuxukfHz/sZ/3rp5ddjPevGZkql1gioAMgzT63U+wSQfZwo5G9AuaL+O+sIcN1xoMEzDwdj2kn9aJ8DSi/dAVfCeBtsL9euTN/9kOupr4xFHda3T2M1nSdQ3ZF1dTpNW680HrmsA9Emr5bzTU7dcWfaS31kOWw6d0htdcw6Rn3uD3DKTNs+9HbZXj3bTvsAGQhCOtK6ooLd58WE1lz7AUv2ynnM7v9WnJ99JwH0JMVB8SDgWa4efDxk+9HbsfnBW9GhAw9v3ch41nw2jfV8WW//zz9nLsyizWg+n2f0H6GtUcvO9W7p4Hr7CWwYgLO5d56C1h7bwwyNVg8Q8jufZzAYFdcFcLteGeOXh4ASkJ4yUs9g0hPY61zPjvu1RzzTFXEL1CdqcYRKh72sk06AHrQdtoSlzDxpl9h2eNzrmSqfq2DGxf0pMjHZFDVYyYL1dJWpVKpP14iYO+cWHy6N3J+ssHsdIAwe7DSDyutihW1oVo3sgtBpy+gYrYAdmnu7UA81Q4c25/JRmNGF79ZTRrK9osi/DbegU7mHoHKMaczwPcM7aJxWw+m1A9rao9+wpTE13PWKXk3nhztyDSxveApVrMo17NJsqnqdoSlh+1mcTX8D2/PJdjmwLwXdg5zaKwfftpjG/LtfieWdDzMoqg1/evtuCtsYlepk7L7EdKhrEnKNBUKwIrQbO5+/Vb0yA9cagjFxwPUQe9S26epLwLhX2Ki4RUFnqsroxJw14ZEr7DHnbI3zNXEADD3s9qh0bLI1zorTdc6J9gBPTtJrWyJ82cMtdg1oG9Ywnja/dxZ96tXbIyBDHDxbx6EJsLbUFYLLtbnWO7NTtDcRXbffw/yD/fBycwMiPrMtafRrs6kWEUilA3W6iAbspaBySov3MypQFpmapSHYcJdyGHzL5zKn6tcYpN8xzqf3XgtZV4W+5DtZYDNnOfaV2c3p/fCeANZ5AFjYftUOmxv7uN3huajifs8zRRjYmjwxi8EY9dP0HJK34vbtr+RtH6dcMt7D2PLKwbf/4Otx9v1vYlLhrU0OYoMz0UFFtemEASrAJMz79+7HcjYHDK5ggkFkQQDgVJFB1iF/G3LwWIG5i2sQxJYOduoKTRu7swIbi+9mPK6MycFhdEdD2NXFOKBvvsP2GkdvdECNUG2M6BXX9UxFB8BjGERbS4ehP3Azb4Vtsj4eOXUdtQcIx83E+U6yrJ6xgdkqZwcOjm/EDPUqEHRG6i1xAQRs6xENowOYRttPNhuPootn2xnhLQNqbVp3q++MUYF60rRNwG4BqrZwxuAQ2g6Ajg6OYnzzRj0Y6CdFKHu6A2vLoxxgRutQpkoDbCbIYpM6cPOsL7MssPlMvW+16OPOMO3bxg6GdcE893FHq2p7yIDl+3junabbb/S4H7KgzTK6C6XarSWD8Q599g201O2U9cOKA+KzgGe5UvBVsztx7zf/KU2lA+hU8/LMffMh9copOgnWMd1nvV7hV6AyaLPxplyd5rwvdlu5R+iomTYCah4BDr+vTSYpAEDPS1Mty6YyqFktZ5tVNDwQzyPuYZl7t2/H4vSU0aCMjd/h4fIMYxcymttG0Ld0JMxkaIGfsqBC61Smb92IJgwwQ/Dn5RJHBTu1a9KCdS3j9RuvphoedBEWrOh0lmGLdn+ILUqn93lvgmBV/wIXIKbzlEBhEPHMjpuCMxBc19uxvbx36REXtE2TxD508Y9AFn7apzogG3fV0l6kTWmz0jfOTDhrsxOEgEdG2/LalNih2HG9zk1kMYLhDEdRl0p729Qs454OMAPpjFT6tAe4BXSRXjM24X6ADAzqvx+z2W8jEaXy40XgOaAepmo/Wa4MfB58Ur77TdQTthId3G3BVIYPEFSuu6Ux6WIDthYMMhlhyPd0NFBzdLCM50jsYrjLDK4I29JpBqTN9HWNBtSX1xkWkCVsqBbPcDBIjzftQy7WhjOarzBVP4gbGwywIswV9bEG8oGODxWgw42/8R59tUXwWwzx4hyAAMRDvHMBW8EiBWrbXau28zLuvfUhDIztdooNa86f5/lyfQPjfYsuNoQDcmhjLwaTUab8G68ThD7T8JJtty3JEvzzc8Gm52zWTluTgM+yfxGkZouJCV7vMVp61cYhDQmZ52fnZsSJtviC13Eq6G2MOW28TCbYjaPj0oDWAaDGJkVuad44AHq1M+izXHcsU+Z8MfcRkOZZ9jvIYP0ett+Pbyz+SeA9ivEuy5WBb3t2O7a334LZ8FR5MAoOY32HpwvNAwDtLGNbTh21BAgdl2EDOtitJrjI7s9/tIJrYDsEY0Da9avac5lkKVXCkOpSbSxEgRc4iz22U+4g6rGmw34M3LEAh8bdSAcwqOD3zDOFJAibZi4z2k0OdRG6m2hj+qO2sEWnJcwKYy1wFnh+a+PKsjeiWLjr6QTPmeeA4Xq7NASOKhcYyUqoUGOTeq0b7UvrpepjYJltrL0HWgABJv3cdcI6Ctq5DATqpk1sfuMee9jpt9V8nraXGdgtHSP7RceD+5hM4AIpbVDv58yHz5WUTLwAovxSL6c0lOOREvZYhB4w30UmyfYAstvCVDCM5bYkaC7NEqchNR/scsMzbj7ebtOe1n3MDfd2rkNAl+VJgGe5EvC5U8D6DpVZnKQqRANFBWNtzudpM3VAkmCSgXKtLaNRlWcC5wYvcI79ZzHbw/hcJpXSR66PaAGmhblwCNWQiSpy8IWX4+bnX8sJeleVuSJMe3DbB6B8V/NHdtHjvH/vXpzzfffOazGa3X9ZfJv5EUvqUyCQNRXedRCeAnNGAyZBXfYOx9ynGZvTMu5/724cDW7C7H285FEcHh9lELiTjgDtgO0EB1WKsaoY4jNZs98f5XZtdrSzNrk2NwcXgFdGvDIVHuBtAeDez3l+Z+xMRu2gCUqnDDU1BHYOUX7K1q7/xVdmAPE+bc7By++aKEAp+zr3ocbmq2coGK54v4spHv+SOvBefY4H/bUC+HPnsWF3nrmGLTPTBsR7zpss3mjK4FMG2tvI8odxP9n4SYBnuRLwubfe+t6HsWCU6plmBgaCPxi5RRcsxyiV3QwPyDymwydT2NmMVhM2XcdhfMtprq5bUSBT90zpylyoVFWS3SkLGJReA/IWzKqbYKilQF24sNqkyCEG/prvCoaxqfewzsq1E0il2anipddHsYKpHc2l+8HgFc9dEwH42qhNU6rGn3s5eq/cAlwurh4CvD7fuY/KPQePDLY9DkfGGmHlIUzYd3YEMDBgihW2VrIKww2WzmkvGEkV6iIogeYZIGsdFa6RrEptXQaY6HUOGP1WB9V1iiUrrusxIp0PlpEUNhiGlehTGNciUH0/1SiDfsv9nfGot1RDIwBAQcQD4gin6fBwgjx0gGACM132w5hhRhgyEkiaGMPuELDCrLCh93fV215QVu9gOrxFHeqoxKU9+yTlmcGXoYHp3eiW7qGMoYpKMInA0MPHlbkYic5PmkOmh6hFYnDWUItLJJ0NMEvZs8gaHmiCgAx8nn90N41yAe3IdqFQeX8as3unsOEuFvytOsN/jWo6z4Xi2leCtsn3BGQmXHKFoQnuHEuAOnn11egdv8R7hmIY7TgK1RqbxxfAsOpOU62p+L7XxPFA5UCQoyO88hHOCwwweXkcwxuwSQ/7kGs62rAAWtMgtZnL0OgTfdXuAYMA9d/HK88d66n3EpAuXHiEAD0F3c8r0/9VrwC2i13c1FaWAfnZxJTY89kWw1/wSnJ5ohHmRq4N5pU7XwEQS8Y+BbKqYEedNXeRjs6RW7+1UbUdbD/3hNGOGIw7cfgaYMOO7CEnHcIEOdISKoKlTmrAXNieMqC/g1y0XZ8MdJfl2ZkPUGzvfh+hLWG4NkbtPIrpKfaaHzp63Dai3jrCBEkTB2SuPLxEFUwNZIsuo7w7QGhdbCUaU6ISOyZszqH9mRkctT2RmyLyuepcIStImcNtxrrjEfYhnbPmvQ0w49pSltEWU1J6k3ikBSy3uD+P5Znqo4jT2+/F8uT92KErqy2qDZZcv38vqrNFqkYdpoNbb3Btzdxu3KO3uljPY40nrIOjoyA76xAIOJ+oZl+VBUDBTuI92+zMhB5tC3YxyD6EUbXX1iZWAEZqSYfA/ADKnyAjmcWfmVvIW5ovfInfaSf2s0D181wmyUeyq2t/XexuMkbmR5rEu6bu9CNX0Zdc54B210vulTt8mTLWcTYEZwPw9TBTbK8mdu4vozbh2ap6U8D223uo7zdfHPh2xXmUpx+mrZJB4NUU4ctoEAI2Wm7Rmk+h4QDMFKeNoXTey2NI6co0mmECU516wzEdx2d4j8tZvfZ1iYql5fWI5r61XQNbwJj1MQR0BmAzH69tYHnDM+nABvfyJMjlUgcFQVlHbLHmAiDcmUYDYbtDaQchVltGcAcVSH1llZxVgL4aCNKdBe6//yG2W8R6o+MDwwFEoEa7aAMCcjAYw8tNvZGs02fm2nkOCG8C+NreM5M4wxkCg8Gh0yUgBpgruUrNOgIc1XGCiqZm7A9G05RRi6SXn/1gt8iCsDV1MMcxg+O0tXBjdAeE9+E7OV1mFowARSAZkJeTrSu2tqEZkasaVVY+z+f06Fv8EK6HSMwB3NBnjMh95T7PZ9js33niWY/L8tRbpFmsXPH+b8bqa78Wnc0+itnd2J28G9P3bsfNEa48neehc6kiLq63sx1xdqjhBifvN4BLo9lEgZmAAGvtNV4no8spN7/nSd1OyakSjQsqBQecR4WaBiWrOaJbdOYeG7CDzVTm6UGwHagxbNPi7z7s6umO7nWSQVYELmPIWP3jA1Rai/rfD730Evsz100gOAUvyMxqbg5Nit3E6HDAT9pGO2cwmuf1To5GOYWms6DjZfLmXHu2T/15w02EtD4XMOLg8CBaB0PUupk5zsLQIGMlaXMBypsH3HNAS1HdtoN6KqxMR+KZyXTcz+016CQGkEaFg5K+4O98Pv3soHWQZ51o+z5McJhGuZ3mvLn5fDsJQQemaW6ZLKcK53ruk44EdXDuJg8kBLwb6liUbkr05RiN/2y8+rk/yvcerzzTFmkWGzRyUc9730KwVa5h6CHcs/v3eH9Ig/Ci6ECHZ57+YxyP31WvLu/L5II0zlcJLI+vMqiKWZzBYKP6xvK0WVRnW4YfSjF62EUJYDsEfdCErYY3RnH8+g0cGOw9DWw7zmuxkxRKSUdNsLkMN1R6rzBFE4aDp3LNqtvHahacvn8S8w/PwDF12TEC9GBRf/vWFscDoSKkvWzEvZ3pcCeFPPeD57306usAiwbC3m7xtoG1fZnGr+M1McwDsFwWIOD7bgoEiDLVDHCr2tvOeNA36VTARAbDdcrqdDFNQYDE9VtU9OZ0Fm4wLkNpkRnech42j7+H1HKpqQDkM4ZpDUZBin3LnfidZ/Kvj6Ok9lA43uvjazMSodME5HCqdrkKDrMg1bSSKKhrQXPvIMO3nor9ngp8Ak/vZj27E8vpGZ3YS0Gf3L+TdoL0rgcqeNw7xDSfjOVRMk2KztwUsAEqysj6Wj2Lp7jnOoUh0xieMAG1Qtga3GZopEpZrHP6LXeyAtuO/JOT05yDNdWJgY6XS5d3aufCYv1cgE4X5/ecJVkB/u6NSaZXFZ4OTl34n2M/naNd7mPcpP6wRO5iwMhH2HrjmGrJpG5k5J6AsYSN752H+yrrsOSDYAiNc/Rv2oMmIjifLHu6+Ns+1GbNuB5tVkUaQLdRtkug6K+4hx9eFu0UHNi6tL2PbdtjMG3pFx+/pT99XZolXpftAUiJvvp/F4Xn0caGsb6d2SxDfh/xDs5He5J9bzEpIVmQQVCraGFpw6wbn4PwrTmKe2dQ3o/p+Vv52ZOUJwKfI+LSrbac33kb8NQT5TnrAJVOXHPgdVC/xakh525VEzbADnKPONuYoxPQ2Q8uj+TWNAQbCWHUu0JtxFC460NzjtqUYQ1jIDzXH/iqsPWiQOhnq1RpFUBa74o4QGUZ4nAaTzvLWRTDHgJfxaNhLoM43ef9LKpegVcZoKUuzgrQNK72miLVmcyRU178biC2pI6iJa/nfbkGWNXsOtR7RZ0yiEyyELyq7xx8eNLJ8H6fJyRjIVSD1Ply8NFeU7zywBj6I+ejvY8AU7XCuLbDvvfeft8ieNUOCUZKrnvmu5fFTY08Gmu3HaBtvBkAy8FAf+HJ7iqjAww044ImJhiA3xtPEORz5MwQbcDcjMIWXvJufy9ms3dpC9riCYqIeOxi5S49m9J9Pu7dwWuTCensxV2Eqcpy/S235b8t6lZbhr7LYKV7CLutl5m9nVQLfD5qxfhoyPdkFcCDPbU3UIxQMtgJGjCdo+J7Je972pPbXhxMJqizA1RUNwbNXm4iLoscjMfpQd7/4E4szs5gHD1NveuCDjrHxlF90A6ERU+noW9Ev9WEyfoOGqFZ5P20mRpj6jBGHcKmK52F1gpmrc0II7tNvrPHjpJXu7RLADgdaCwzp6wEj54t/VKXmkHTVlNNwvYKugYmZgRMk+f2YtRr8wpSPVfVuXV23ldvNrdt424uwEpvmOJgzExpnu9AVPNotxme0jY2bc0i+1N5SGESg94NQAgQBaRAA4SLJX3UnCMj7ieg6Sr5clfN+PWc+92hzk6v4VxW56ji+8l+5fbc2z92qWv9GMVKfTKQuEfHrxDm+PioHqkYruOe87VOVDMqsZtaMAm1TBVk5ke9OEb1oP3BaEZ4rmDwSFEoi87dxoGJp1TLTR8dvWNAdnjEM/jMyqpOxgeTtJkMRfTH/TzyXsfT3ecVeO4WACgz0xg97FkTvUEzhmYWd7EZGdl6ibqBFc9uTvB5odcFA0oHw90TlpgN5uPJYgPuI6f1DrFlj3uxNckAO9FQioFmzYL+QS/aHrqsYSsTUU8dq5yZADwL2D4DyLy0Pa2nWTs6XQ7MOo+O7/JqUGen0HTKHFBpE6LCPUarnC8ZmK53NsN6z70YJNzTXL/sb2WT/6evJDWIwDipc8AG+5WfoPcqVbu2n05Evsezc3fWndcxSFxmUM75nGcxQHUUqt0Jz4F4mjPq5RFld/n8hJ8f8fn7fK/Wio9TPhN8qlDB9EnazgZAz84qbOD93CcFI9tBonpTNdgDmcnCT2nfiLsrrdyU0I287RBVclVUua52t2JkrXeZsbudLdMq8Zn3T07izOwU1OvuXDsREwuBeRaGte8N9mGybgvWFFCmJtUeW61CHSt2ekqEyrhu1VO+M5sE1VWUeMAvvxKt4xv83Qckc+5Lx6Py+JBBtc7MHPvUQ2FkmTYgb/aoH3+3dBpox2LD95I1VY3aiLCjTISANeP7MKF2aw9V7MmZmgB96mCf5TkWCQq+DVjcg8btP6y7RQbbynSA0To7sHPKzACygKVOOioORj3gPI6B73vvvAnv5Y72FAnEgVwDUNkaiOZKHC/3d7HvPAwxw0m7miEVZ+wM9ANU+suwi/FDZ2yaTeSA59zY3Yv5+de5d82uj1MeCb5LG6/2LC96wkLHrs/vx8HxYca1dozqFj9z0POPmlAhMyPoZFggN7hh1HgvLIR0JPRuPb7dSfydc4oVAnUVFQI33d5i3EsAHx4eo4KxHZ2nRJgeV2/emvEsm6CtNRqOkkHq5zpy7Xc7vc/gcIbhAMCh4vDUGm3TqOhWGQOBnnx0GovTOepc26iku51LhQkB/Y7BYu8bAN7hPO2x00rqeXTrJey0boLAhdUK0ZQwZzZkIAeJoqtQ1WbaeN8tDLLDTqnwGAvMAG21ESxoO40YJPhourt1GaJJnx2g5AwG9d0aX2OQ6cy5h7MMmOuPFys8b9PLsPNoU7I3/SRry8ImdDj3C20hO+1T+xWW5rm5UIn75qyM/E5dh2MubgJGVW8X4sBXbNFnBzg5w8Fxyo0L6Vv7lzqjeputj+gzIx+P7/U+FHzpbvP6MeBRclGzMwFUt8HvZi13qXRvoMqt7UJViIt5Ku0MBYH35HYSqiPXsSokMerO8XbSnM7TE85OMbzB547SfqcXMzzZLR4fUkLYjD4BgpecFI8K7cFY86kdQJ275snBTs61yqxa59zTEysDtdgby7h1p/lvNOzHywfDOEJg7QYMQ7syLIQwPDTQheBthHboFry0a7OkDTTp7TffoQu00WgrgPd8kFYbFcjzzYEzA7kegwwSvlCivrblMk5P78UUm2p0OIEBnfIC8AwkmV5gWIyB+XLjRs0V5ZAbo1Nv257hJ/uZf2oB0+plUS7kgeLC9mml0e8QgNrH+KgpbrZB2fjPgeoA2G0B0870KbOLqAs2ch2RwOlJtQylmOu3v3AUGyYjqMG4H17ypnK7kLsMbJOEf3xr3YeVh4Lv0rn4NPAsTkG5vsDKx/QU1YSh2ShzuqkoGd0A1ukY7ZJspCOOoh1nw/WIPbrA6a3p+Wmq4mEfAx3Gym32+a7TV4LQmF2Xjty1AEYPgGP8d4ZtbD0cjYl2jqPWuBvfHffi+JWjKBvYKIxmD+/Tbhx0Yb9zbBRVFiDz3kPU4HAySs/bo0tV2bVKqqeh9JLTE6Xq5ipOcV4MrjonOqx4CRfBxQV6pP6uXWd2casPG+Ig+WzBoIrzHrLkYDQBeAe5W6or8VyTbBp8pkXRRwpEVa29p5kyxIFSbavC7VcduFS3qlH6ZXx0gCoH9LSLyjFopYR8bJa0OwUY37WkPPNDZdugjTpPRjCcLapDWA08We1xUWsbEqCMc891s2+cDTHpwGxncwMFrZ74enMa56e/ne19nPJA8D0KePkeSFelmG+3+vBDfhowxnZwFgKVcakCK0C1mmGcyg50ck560zlbPDiUbIJqNBilUPTqHJka0XplyYx0cB68wjPNz/OoKEMxg9EAzxPVA/O5BsHIvdnPjO2YLc65DruOa/t9BAhQnf9MASwRMB4dOEgWLpYwzEpQdPFvAQjPM208A7D0n6rQ1f/OixosdsGQ4RGP07f+ClSAa8MaCnHhU8krbTrq76niOwalgMSDSLvN5Auv31CnDfW2ncb+bCMfcB89WgTMs/WAVcMuCMq1G3zmAHEjSAemz8glpl4DmC7ZUBnlDgX8VBXXgwo7jXrVQftaljJkHwfPvtUOFg0JLK7VHm93yihwLFsd6s1zPD7BlW3poJiCBmPKgK75UL7b6ixmq2/Qr599poflohp1ubTxstI09EGFS0B9EU0a11gCItghV1jxveGoXv9ZH9KMitSmsNIaynR2A5YSGKlWVX0jGoj9p6TTfuORuSRQpmOoeVy74QMDq7mjFUJ3S68Fjof7MZsw6Zm4OeWT3c7fuak3qlyw79zyFbHwTB4O8MxQRp2hTvx7x3fdVEfVdevV13Aietm+DgZ4xvG4r4e+eC7vftOI+R0Ynr8v90YxPZ0boOIRHDVowiLVkhf2ov1YzxzgoTIwDHfkzIf2IwPIFxfxDFnxAny8HHwujczkW+sAQGQ6nSaXU9KN+R1zGGUlHQyZQNm5uVJ+32cgl5Thx+CjzfSQQf86Xkj/GgRnoDVbOBkZCnLGCdIQXNaH6zVB7MddYx49+rLjtnIMHjNjHKCVWABFDvZma0l/n6BJHi/g/GPg86H1gx9c8nPXo8J2WzxD87syms53NWCH/V4MsVDNEM7ZDe1AVOS+7cjle3qlGMWmO20QjlkfaYMgzD1CNo1qPGYkoWYtLViR/kwAA9cEmD9dg5HxMq43tmhTFKLGtGCyr93NwLUQt157KQXlsk23GHMvvUKzVdUJDRSYALfffj/m989gmY0kFZPjQZ735qg2F9Bd55dc5wIombpWgQDCR+PI5IwKRrp7HLtPs6xinVVBxhcLNMBeJ0GgURf3aHHnfTWDu9AbDSipn3vxuTYDlMLK1BctoxOgwLcCR0cLcFk0I4wTZszQTqJ36vdlfWxc+5VXxhtlY65RQ2l3K2KnBh1Eql+vVc32GEjKEauZ+/Ri5JoYbGEdJp20AZqq1XJmxM2d0ATVHMvrPuqXPuC+Hop4dvrNbPdnlY/B50i1PAp4Wbipm+NgqKFWZ3H79od4Z6ZoCxwZQbYos3GuNR0cYstNqGhPYdiObQxgjr0ZKzM9PtVDlWra9Pb5Yo7teJ7s03e/FZ0AGp6eLCXje5R6oYv/1YNFEDlXmlNUFMY7/+M5CPvs7DSf4bv0qwqWjmSk4oA0AA0QybnXMQDwEBfV0gqV6V4nqnlTyV1APYHZdQJySSGver8/GMD97bowtLmITRf8IDqEbQaPa1G0j91LeozgetTJWRuXgradNrPfAYXMnnv50Yem/WvH+R3tvlSddK1LBFTVjHhaVzOf2TNKTMC5T6FTYZoN0qF9IjPmZkr0jQC0OGgzfogzkptX5rsW+ov+1unwd74JI8L03KM+jVMWxeyAeHyoiRoC++DApZn1ddsNct2fM3A+e1vdRNwl8B6maj9ZrKgAchJ/PTuL8QhjE0DaMD8rsInsyNpARkh0vjlSCn8FpWugmPBpupExMj0p11d0+yZ06qGirnrYek7q48B10eQtHY0RVpYaWusGxhQgzog0+KyBKmjgYOR+zgC2CRM1uA/KJYWygtFcmWV8yuMF9nRer+2+zKiRPoAEcCuzXoy7MYJbLY18jOkhwoQF+2MdAEHuRpaCco7xPQ9nYXIFGZ7tcs57tGu1wI6EtaxLqIoAQxfA7Dxfi59glTrxDPqcmuT+05lqRl+panlIgnVHXWublsGUrJTyzowZ2+8QSuD7mSPdVxbqmULi7ow0X7mZpqA1Psd3zD80+Oz305lAfjKncKswEarGOb08y+d7e6MIrnHutgy6t6PHd9VMXI2GQ0hcp6mlPe9KuO3OmaQ7dXUeUsQcr8cHXl0Q1o7RssEOWM1osyEGBC2z0L7MNr4ImtrBMqWd7CgcDyfZR26orT1lzlkuoJYpAJJbmRkC8fDlweQoO85sYAPI2oodlyNiN1au3gGI29Y2Nh1suD7AGvMMSHELCzWHNGzYikJjH/Bo72euXArcIDOqyOA0oIoJ72F7mhWdO4ZmGMfgNYOKZ7vZUOWimQMEN8FmBNCuQ5ed0HfJfh2cGFew5T579I0gdY5Ucba9eOW5F23qq/PBM6lPntPrgKVO2nS5eo/r7a+6I+k1+5B6I/t0RDDS1JVSF23BjEDFOftgeEhv2oHpoMxjXnlpb2f46fKnmslHcN96z+Zank4MpCPDl13rsS2NO/oebUC+zkqpgdKGbbhzGD8wMYxw1Am03sU5YQa163z3DMT13bz7g8oF8Fx47zxrvcbicV6OnC2gq4oZ7OzKf25m/CnBR6NVK9C56lTba6NNR6MvjV9VSBsPy0XiE8MrqAoD1SUVrwBWA6AtT2dx/tEJ92zkrqSqmNzcxo0eUQltGMk1FI1+Iw5evRn9m0c507LYuUtLET3Xy3aqOHj9mGvtGTrJTkY1uOGQQV6UPAijQwFUAD7naC/3ft41lxks3/Dv5mvH0Ttwugt7pjxL4Z1Pd7FmgDRMn0fdYqpC6AxA6rBFVZtqJAiL0xP6CDsRE2K+gUkYNCsE6syQU1UyoX2SiQEwh7Mr9WwG/ehg4aVY9ebTKxaFsLQRYxf3mJu39pT2+RneMP2himwLTGRxkaHsS1baIg9lYOjlknBcN+wREso07bx0Ijz+wcC56hzbUxWcIBPcOEIAfVmcIkcP49HRgDD4bLs9w8an/ly+oZ825X3auMh2fvKVKxEdULwYULT0CUoxO42zr/3d2L7127F599spFIOfCndvmrYpRXh8qiKX4tlBQ2wVvSsXW5uK3VwBQIQ3d+8W5yjpC3eGd8uH7byIxtwRjCMAO2rTDAFQj3uZ7yeGWxjCGsDaJy3sNpdhJFthAnhgi8sQlatbXzhl18RecYYinYEOIxZmrBh08Bp1bmIwL+OlY2w+VJrerSB1Fd4IpnXtRIVQPMHSkMdmWUb/8DiW6yk2XhNgmuwJg0HGG6f8aENnwnt45TLnHjBsYN9eVxuuB8AQIW1q9de0y3lx1Jj78KVd5nlzqDZsT9QGQgd6AGPHoGhi/8m0vikwnEaUcnLvQv5zMHs2iaov/zEYtnSswhV4VB5gbVMWeV+/xjMyi9nKA1JZbo1TY77edntC/yz5vgwu8OpgN5VIEKmVfCaVgDnx5J2x4Xkb2lPuXolbN//rcXT4ZwBmbaNbLhlP4BnPrYfAExT3kNPGq+h87Sw9IEMnxoU0jnOE8S9TpBihYzpWWteF1+bTq01PGE/OXUe7CNYjsMzr8zim7gCWQah5LIJGXkmDNWaptM9w5OolgmKaTT9x7z6dotNjHM2dDfoYi00s9K4rttyBCcZ0urcDUPvjnpCLwzGM2RjjnQ9zAbvCPqd+Jx5T5cJ12iTzZIYO7ah4mHmYLZwK1fDxq8fcj3sxqLRxrZdrc5vcq9ToV213ERkY4T9Et44VLGgsUgY3e7jR0XyA2VDHfJn7AGAHqAxFHxueyeNUVYH2Kzczhcv1Fi4DtW05g2FPOOXFb1QDGfBcrk3VivrNhUQMCoP8qt46VZ7rlAtgE1RGEGQ++9jz5zrtQ/q4Y9fb1ahhOAVSMLVMM0t1L3DdViRBCfAMrfkczQlVtiGay3IJvBwIF+WJwaeRKf3uPd7TdCL+6eon6Iwb0XG+JxuaFr+CiYo1lU7PztCDDTFDGc+Njmwxgvsa4Nx3Uy6jwmDd40QIakeoHef6CEeLU0wDVLbncXhUlXOSqvvMo2Nko7ujWuAEYPQ3zUkDgI7VhsJtObfMCKYCrs2Yvfdh7HASth5Gw/2EsrVoqqaoc25g2adjaUMH1byoFrnGY4eqdU0vPYDK5TOcFA13+18v0hAJxhjvMcic8jJRcwe4DcWoNq33EHsP02EPC1eo6jXfy0EN+jYlqslIgvYnr7o3eZ4DzrbwoFpNAjp+N2YnyylYtYRmTapMukPg2R46I3+3joZ6/Ly+F9WCMLKj8+V9qF/uWKWJhUrmOb4yCRfVrrZxCaYr3jLeyDMbMGezhV2cTog5fm2eg9cLQC0PAp7licG326JaENgeAflwb5oBTdqj0erfspTRUNebbiUOGaSk81FZ+yX2n29aaTqh6RQcv9uJBjcF0xrjeY0KcHdRc+WaerPYS2sa1DhkFB+hClFnazSIgWqdEfe5a264J31dldyHuskUGt08DMEg5CXMdm/B73QQ4NejVYjaWCue7Y4X7uXo1hxulZGZIYClJROPWthtDA7tKRjNvfzmAp02m6LlMsgWTOSUkxa5Z4lUCKHqc68+AxD2Op26tgShovJNdpgtT9POo6doIwMWJ6g3aqeX74xGA09Y5pWBO2gJl5E6O+T0oLM/6aBYaLTOQO1EWDeRZ58abaBDlA2/G/rxM8cpfyZQzIdEQvQvw59rfV/nkR5Dvl0cpgPegNFg2gH1K1b30vbVVm93BvkdujoHRK5uo16uJQlT7/Pk9hp8nwaehZ56srJnZLrbqPRfzF3L6sjxA56Xo4tfNHb53Qa3YQe9wMZiG9X5KrbnjOhim55ugw52raotdkpqaZrWukQAvIdaah/S6KN2FE2+57lot8aoPjqljQesx3qAfXQ0jObhIEpDG9xDFl5ijFeM0Aqv08xnI/kTrvXIKzNx3K7DhNBq7w72cypfxfHBURyOjnKNxGjCaIedDNvA2TkA3OpM2xKcxbK9xrZxeq8b5+cVAPJYKh2aFbYcQHLPk9YcZlzG+CbqcWTU5aU4mrwOOWPzagI4jReotx5g4tpyv8g8QdWwwMnZDb05Vb3uOr+mcwiwc2UcwjQ0o3OnwPkW97tgev6HdfNx8VegmP886DAPiM4LZE4+43ffU80b10xGNLrQMrVqFJ3GBAB10VTUS5WEp5uOJBdqHhSb0yQOi/3vw/WQa4/blKwfB57licFncqQZG1Krc4KWmsXpdCqtulGNtflDQTZ4cKbEU0krfjlv2IMBjFnJLCWstnUR9q2DGNxArR4yqo7wonh1XwZgx90oUMVzMyu02FqMMFS+KbtNQLrE+VjghbllhR5wH5D1UGtuNu4sRCZjcrk7EbhnXk4ZAQJDQXqik3EnZnc/SO9Ue9b3neIz3JDZILYBe0k282iD4eg4vUwXGjX1DlewjmZXBw8fY9xd3Q1C18e2UmOeV8U5nbMAQCOEjK2V6VUIWnUMyzuHXVWwh50I6CBWWNUBwr2RUtpltCt6tbrNQj1Vs/knDGSf52e8ctaIL9YvL60jDrY9Y3v8LivWYRZZ0+9ot2nvUFVA49H+XcwMBwMGLJ/TVuuJVthWS54N8zPQzfvTTvTcYfd+MSoioA1baU48rDwx+GorT0WBeWPn8LsCTnrn781mnvRuCriZLQ7e7hjVeIztg+1kIiZjlsYjFK+n8zqwl4yywPj1uIQ1wjPDWDtpw+9uH7HILJMCT1E7AoMaQ9xjpbYKG5U7gBH0JjOuhze7rrgPddCoVp77PayoSuDbspkdvsGZybUmLZc9Iqwu1+K97vDEZjOYLaWm1ywbwMSqRtX9+TRHtaf7NAJAwd5tvl9p9+DF7hszOt4pOVkekwTTQs961+R7HXoMz6XRGCLgm6irCZ2qoGU0zVbqZlc6osURg8Cx7ePsd9skG+5Qs54xZ/18P08ooq0WvpbFNso63kqG8zlm5Vh0GvxuGzAblUhbD3JQRSpd1XCeeO7deM8RMBzeitHo87DvAc6LR6eO+AgC2R1yK5MLRrzHM/iupcxYpw9+cOGuT1rsCgQMc7n4273lZItkCRqvt+M1nnI4P0PlmZem/WMjsWe6Y0zwAzxQLhsejGNtRQGAuXODwThu3LyVo9NpLBnWRMj1dIWZhbPBNf0MJyAsPTwn+ekUxiL300ZDPfK9HuDp4Zh4fofLODO5EyC5zcMYphxO6vnmrvYVHbulCtWAzugBS2yV21P3YzFbBGHyLPe7qxjh/MJPbEvcDVV2UaEu27PYtM6AFnXFNjWDZhe0a43p4MQvKrqtKkbAxug22I3uQmXuoOs1dEZMS3Jmx04x3rdlgGXclH4UJI4B7WMXstteR5PDXiA6+GvPtoZcBvspGY4BeAIwF1qhFmU2HYxcKIWj497NF05y/s8BpmO4rzpoBqf1HKzYdLKYYm+o9m9Slxv0was8BPABuG7PcArmRVtvWqACbl71jFCNlweVJwZfLq2jYXbCwY0jWE8BgnceaoayTOIRBjJbBzU3HGFcFwiOjhqMaTQ07pFQK0ByMp+m7WaE3NdsPot7d+9llNyd6T2LzSWWH3c+LcpwixVxspP/ICIYEPjBiqXPMdMFGvXv2elZLBdz2BLW4Z87Yk3PZzE9lZ25C/ajc8bjoQxEZwNoF5nfGAPyCYYZv5u/pm2m8e6SUEHsYqQOLOgI72jQYQYwbhIoOh/3bi+j3zkAt4AXkLWbgB2BDwYHtGsC8Bi4iyL6gNPs7TTaAX0FiAu86qKaAQqeejFo/OdctFuCGN5xQJjV00PoftfMZteDZIYz9TQovVP4qtYLWflTIMpsTu/ppABP3vcFd9IfqmIh4Rzu1mwe4zZ5H/P1QCnaQ5Ch/3nWCI2APEGviboNHBAznF1iSm25jv+nur5C8BmhZiAgFzMqOrHCWzPzwiOWFqtFqiqzMRjS2Fh0wsAU9gY2mF6s8w90NCNcoHbpSMHnjIPjVRvStbB5YjhDLU/m0fDWk8MA1suzM1wjod0kk5i0+crrr8Vk4maHjGocIFPg87hSOj3Tl1Dhy4K60TFNwIvUMm2pqXAAWLFCANily3XFoOABTuFhvy1mqHhBDtMxHtIOamQai+ymPbeOs1Paij0kY8g07ms8cqqv/WE0xzAUgpbdgTlNwrnRLqVeJisoF21nM0RMAzNOloY+gqz0FGUxQJFmjrYDKlhK4UmYANwKR2iveaLtC7O2GBACzyITmr1jn+S6FcNCANiSMUT60BkInZY60qADo9qmr9u818BcQAbVhrrwCBMLKtjQPD7raxhmv6dT9vR3yXO175MlkBFAFccXVXloeWLwpR2kMWoYQOfCOFiqsC4juwfTIED3J6EOXQx+U5cquR2V5IRV/2AYMwS/pSMdTHacRrNpS+bJZYReUDDqjLV5XptbX/TG6sUa/Haoa363vDzlx90SMpsDY5e+o8PoSGOLGPweWTXgu2YLK8QN73ePjtKb1nhW57rzgLbs0PxC+tNdoNydygTLNj3Y6dfCVmj2qIxeGUQfNfCeUZ28ty3gTembSmpbFqUru3RuDF9Qv46qFDvQ1f7Yih7t0Bnhpeu0yBrYTAq224FC+csNlgoGjA6e98lFP3yiijXzWyZuokEM5Bucd8mn8TwZLUMuiMk+qtW93YL6VU2LJG4kru0jm1Rvv2vojHujomsvVqcsL802O9wM0yTxqOm475aBuc1ll70EqjoiM2oApQOrnkvm9ZDyxODzWHRPyC4Z0QX2yX4IU9lAfnrg3dzF3YziJsyxcy0ANhAMngRiYoAjo2EYheslkXoHAzpr28jYkWrdhnAhNhQg7yFomqVl10eoA0CmlzwzPsY97Sjz4VZLAch9ucblmwWjuAP4s2NXbuO1ZeS7fjZide+sTm3SOEYyJpUaNG0BUEM00G/0jyaZHVNp2DNsLr11O3QHk5QdvPKxoR+4HCfLJNbN0nQyAOcEuyoRoHHjmjF4kp7hdHYnY3tmORdrhiNk48sta+sQCHYZ9besMBkSdLBKroSjW/I0JupBhRiEDBZ+B2KpLbS5BaV1VfgZg+TJetzukLVcnmfd4LkcIGac692qKDWbzADylan32PBGLurEWswQZK5jAhdyD8NDmhQClMFX03B+L4VCfZRfHWNM+D6wPDH4PC5eam8j2H3P0ACIZ9QY96l6+3jl547xbOksKr40FoSNN7mBYFGZnp2xQlDNSltuRgcY86rB2Bxj49GwKca+Jzu61JBW14Y/jXIh0vn9s1icz1EXRbrzsmSOSkBnrK2AEZwuclml9ksGaOlUN1VsUYdqwi1v4YAgW2cuVsiwNMhMB85QsSs63FmNzHymbSttIurgubuuJlvDRi5YV716kHJD6nagoHamd2n/CmHz2Yi2FIIFgajeVP0ZKIaJOs6QMGiL9UWOIWqz2JyHq9pq45/70S6PRN2kPaZ37ODj/Qv1mA4G7fKn6s6jT820dgCn/ZjX1BGF/JogNO6GTD4ORjNok5kASZor9JF9VavpOhTm3xhM9cBsDviOWwcLTr4GqExg2Gyn4o7bMFDzfWsqK9sM/ucjHlKeHHxtPVUE5vih8rJNvV6ARiEw05j2A4xy+3U3xLDGUaChpigN8XJv3Bzjrtc5cgaLzVBp2dAhVUGzHt48cHgDDDqMzjLrWSNbg90QxXxO05wtsdNdRO0CatS1IRv3d5kDwFzEDWNm5i//PCJh1+jmpo4VKrR7CMCGAA2nwi0tlgW/uzk27dGG6vZ1UM5hvyE2qiEDPVDUNYzonGyHAdczu+PMhMk6AWI0QQMgcM0NMID6Vnj7GB92Y3wDYSMQAYAxCdMveR5eb+8uwL6PeeIg3aTKNzNGySG+tNnSeRCEDk2zbXYu0vInfcD7O7xuN3bM8Bw/c70wgHerjya/e8j1du08644+pL2Ay7bISmqNBHaCEHkJSP7l1iaA1kFvULo+poELAJZZzLmDPRqs2x7GOCcJ9KQhEXSJ4Nf+r4vwejj6mp9Oefmslx6hFXNO0zy0DSrNRc555j8f1MsjqQDo0/by6HgNUke+OWUa6c5WuJMnjh73o1MZjVvsIc0F7RSPjtJ8M5bnKHZL12rLqKOHx0fYlhjP7kjgVN3mvA5aj26iJlHl45eOM6yT+zVTH6cAu3SWsxGO/HYP9YuXa0KDh7ps8H47MJ9q2k2JQAcd6Va9XMvIblOvpmrL4CpeX+6vzGfdAZ3Pa4NzYkB8+NIgkw70rM/oJ00Sz8dYG39zdgSBe/ifIGzzfD3OtF3pE221juldzvXSd2Z0u9eLVCjTGs9zXrWslvQfgJJtAalnqeVhzKlB+N2ZJf+mzihznqmNVybTuU2JatNkUVOsfI5b1zklqp2nqvb3NIPoM+1wj8v3FErZOAcAIBOgJg6Y7bLFK+f2wpXPxaD9V7dLyMn89Vl4P5qWZxFLzcs1oo/70jukx/ipoYzatWGMHDsxz/oCGAX2hYe3FNg1ng6pDeho8zwKd4fKFCHUm+rH+prLZyKn4ZRUATCfMxA8IoVmRN6ND30G7QYMdMyS904RwKqPHGBXbJOMcdGRnupjalXIqoeA4mCUzCBblAjOowoKBoQJpCVMMhoAyN0Cn6gGR8bIHPUIvDPZ5XJNbZ7NDsZijJnG1R1hsPbp9D4DAMZaDwAJrFoZiIapc1WZWSEVXiJOTW446VRks4j+EAamHisGT7mp43hL1HAZU25O/zTNzdNupP44MQrcvQSpFr/DVGgFvomm82f9+7Zyzhr25BEt8/o0GfjM4V1/n4FoYgBtlJEv54Etsp/Asq9zx1j6O58FkzZyjha79mIAOUMlEA1oM5YY3DyQ+6e3q00sOfF/1bC2oIu/TJ/65MsiloTqExUPOrEjVOeGWFbYVzbBOcEVI21wOKFzh3FwdBDHN44Rcok9xkhGmPMCwx+QNMwWAaQjDPb+BBsMBvXYAqdjckd6rrX1U08V5zN3wjw67GcYouLBSzrHzbSdE2906LDlIkaA9sA1I6isNrhzO4cGoGkf96LsqsLpKfqk2RjGmg47KwHtwa08HchMGtO7PKoeWeVMirZqcwAwRnhu7suCwPrjfUxu8j3MitUeoOrx8716n2QAy32Ghy5MN+FVJkAFwjQKW+Z3lqWRU1Qyljlz9yFaAQH41QSGN/ao8uYsNo05KFrQNwAxPdnaC2UIAS6/b9+vsG9lQ6e5nGd30MqeAo9b04+pbmE9G6a3q9zoXP9Hf4gw+9rPLToIDYDBdYDIAduif72P04YrE2J1Mhjkmy3t10Ro13+n6SWAa32Tv2sm/fDeP16eGHwGVlt4erm4mNHdRee7Iqre+6ST62m1nfoTHAg6rDOCBRgc2ubu4tRDmG2E6aJuB40qV1DYYaobVW2qI0B0dNNDA+sqrjxsD7bz6ILtmvsfjKPhgc0I2nifTkaqpfYihl/A/T9iNKPGNqW7UgGCkgrQEc5JdmG61gAhNecIlhF4gOAHeIXYT13sUU8/Lzcw3cZ8vWYK1ywYg6gzhG3YQgrUuekOtJm0Q0dRzHkPL4ZxwXNgzGEDm0gDnkczYNwX0F0OPPkHKSJ3BIbduj7HhgNIuaGkeQ6lom/gBDl/Sve0baMARMjalTI8xX6q18zaX9SPfveVjgIqhdtnXVyrbBjHmJznz+mhWpL9kNFOoHs2MX/nsledQ2SSQIZRM1XKWKwqeb/gmy4cEge8j9eLwuYnfUid9dYzXANyOx3qBk4eVp4IfJf0X2FVOwcpzhV8rrwHiM40uEcflkTsUUemsa2h7p2jGlVrurmT/xnfo/L+dBu1taM2Gc7qqPKcs0Qtch+4IFklbUOu9X0dG5cr7p1d0ZGZjNO+UicbjI5uiRFPLRGa6zXcIwWFnlN4rogbTNpxeIR6xIDvjQ+jQI27o3x7wr2pp4OnBKjp2SIMO9aFUTOcJ00xZ0ocUQqo6WHS/Ntu3HUKJVgZeFUzUGfqpO3m0V6qJWcgnIOVJWQjWUhm2lUD8HTI2MCelCx4z2tKBG+6uozodJtxS5cpqIppEM3F9gWABr8NrqeHb50AgIDU1jVgbZqXzoDnqo36R+kwCApuge1V5JJQnSo9a3M03QXCASvT6liYdpbrcgFgTg+iwp3O1GSyjXVyg22u544Nzch8pphp9z2sPPyTT5UcTVTGdJ7u+NiBS+UBip0JODwzwyRI0396blnmmRR4gKahG2owM0RHQofDlV1uMdsa+Dmj1mAuKmyEqm6bgs7nqmYzkDfYMQJiz/3WzhHjRXZu9NO4d3s02opxj1qn4xZ0IF9Ek6FqHI2oBc9iG3pP51aoo9NBqwK2gjwk3fPlOfdwXXE/Cgmpz+BClfSw9cY3AAiGvOGkzOsD8Aa8TWTt9gA4ToI46I93cfhyFTdfAxBd2LBPH2ESuPq/mPG8ubsV0H8KTALm4foMFazRGK6iNdIOxJEaHuDZYytRB23WnrM/2GkyjsHxNRVMJkSgdWaK4Q4GIMBTPkJM4e/w5LgL79VMqGbx5TVOJ2YIxEL7ZcFq66wQgxtZ6qjIdHtsUwHabk4gxEGCV2C7ljclzyDwcgeXapk3eF+Wk7OdajPpAPvOZz+kPBb4BJ2vemTxlbaHx0H5eegdwFtpIAso7DYErmu+SSeC0WPYRGeBSvRgpsNDKoXA1oDK5ZHuXGBnr43+8/4OUK65h5pJg3iIdD36c8Mon1eNOJnTWFjWY+oXm3OeiQo2RogN5AZE775/J+u3cWDwTG1EegH1yB+uRqMuoBgVKVA3MTzYRAdb7tywDOxbAvCgf12u2Z+0GBBci322QPiGcJyQd1PxEYAbDg3MdmFZBknjFFNgh80LAGV9jHgn8P1pDFS7qO9ZGwwydwg4O19xL9SrnnsH+21+h+ronI0BAcDBO280xjDPEa8hrcGu3NTq0LR+tybJHkqrpZaP4iwLBgr/yu2Mfp/yXQZhWzPBVDHucmH/ZWiM56dDYNZRH2LwmGwcjpwJQU3tcJYSU9xPp9G9DQW6tpxPcUAIfpOJcyMnqDANBuzaXvcmA7GerXlY+UzwXQIv0U3xoa2cAnJaRbqXwulsPs/4UNoN8MwMNXXiFlvduPHKjQvDHpqH+WQSj7LysBHVduaswQqC1v2RDXj6PEe3z1almFhpVszkJizFMxzFeqWiWtf/6Pgobr18M17+3EsAqIx5qXNDJzkfzEuGaiIEX850aJznKZEAruGupKZE0R3GDLd0rqr4fLYF+ADKRTc6WanaaNtyG0vAW2KbGV7QvhuOR6kNdJZMh2oDDhRl9I+2ceNVnCu84/Si0QCq8qPJGzztkL/pV1T4oHeAgBlECpFPPJPYfpBJnKzPGRqqUWLoZ8o9/+rlkKo9wSTk7H8YsWIgwZj0EGrVaT6ub/BcZyYYcNRCUSYD1rt1MaB5hvaeBGO3bvnbBVjppNAuPVlVqfW3HT6rj1bTjuYr9fO5Jnexl5Hpq3rx+sPLI8F3CTwrdFn8Gx3J8J4AlDrG5nRQLkDmOh+ukZsT5fSWDo/2mcsiBUPVYXRyCzPpTRSo41x0giBBD2rdSVaOShMPEpDYbK7VbfVh0j5qATXsRXqQtiBDLPxqlnN/wvM6a9hMNqptxn0H0LnHiDqa52utzvFD5vc7sTijo6hfb1QPAusiiIA933T3ejqRATYY09240SYtuGvs7HyHrQpz+49OdjUXjYb1cKh4hnZimgsMmhImW2Av5pEFQgLh6i2aQOqx8mJBb1IQ03sZzPbSdpc67bT79CxLBjJCx+66DKHkQnMTJ2CetB35O8Mp2sYMCv82emD4RG/YA2s22wWfq16pD5+7KdFm6QYA2LZb57IFsf0gCy74nT5gIGqHKls6kZdqluYiO23KHozo/s3QEvUT8v6UlIz9PrzYGw8sDwLeZWl4YLA5RLDJ1tHsS9AggCR9KmUIRTVs0HlVGA6gA2h0LqrR9uHRm03d4RV2h/E3wetRnplsAHDyejxjF9u0ja3hOXYPMJxHzvca7K3vn7FAvuupktaj5B+9QT2pjzjFDjPRc+NEOJ2m8MzS9YjwDRdUmBCVi2LSnkEIxs/4rDsAxD0EicAbBnJVu4Blg3pMdsS2RAJcZ9IDQnEAAMQNbVmvaSO/u5F2VJgpcQMheq4vDA5Te9iIgBAnotG9Whq2Gc/aPQWFtfPi2ij2VWqUxjK/m2ltiQN6m74WBMppy6jfcH8PsdazFUYZEGZQyX65wo5nJHh5cDIdA7cDMTSanqfmHoKoXN6vSYCByzOcAuQPwOTCoQutRB25TMM1evadthTXZNJtE/XMqz5o8OHlkeB7EPAshlq0qwwUu+jGrRdUoxk+oZFuNmO03XQpoZCkIMvJcPyh3Zj5f/wDN1w/4Xv8DWAMUudeIKiDDp5pCwO8jU3V4bU35gQI5thnJgC46CafA8iUh/u8ZPCSZ7hGotzIHIITm9HpJpjR89EKmKKFap680Y3hKwc5hVbssHXoTZM6DR3k8Z9DxrAr6boValljfxdnUxwmBoRbr3lU/BYAyk4a3ptNN87nzgQZQKY9tLGFPedJ3VXjhN7Wc/VvV+8xoNzbjns4iAawhzATl07YD3GU9nzfaTr3vNHeqnce8AhZNAjq0Gks1a57piRQGDgGpmXOXPlG59Zb12HTYTY4BeZ6FlOnDNno3arIcuNJl5tiWwoi1XH9PUHpJt8MPO6fHjVgM16JEucn6pr+NoTkkli0LQUQ7gWj5x/bmIeXHwOfoBMkDwOeRd1e0glLRvLlYp89QDOx1A0ac+W8DIIQddFtvB5u2nWMGhcZmwmszZVLH/cLOpvv0tHuhWysyM0OzSQ2kOxq/1KQAYBG31AIjMEzXL8xOZ7EfMXnACd3Prj4OV14JhqMpIecTEjnuMUD6uvgZu0lVwPYpzeP7gjP9hCVQ2fDEcnGzoZs8C6LRTMWs0YsnI1ggBzfGkZ3wpBH4MsZYLzHz0UJWF0D6+GHOEmTZoxc9loBmubnAO4oHR4/u3HjRkwmtxD4GGE5H11Pv5WluXXUPUG1qG1fBkoXe1Pb2LSrPR6kMyW5VFS7GTAKQJNbVbfOfiQDCko1l/Yg/XG5xrZOLKg9XmcsQAn/aeOBwB19v6FfRCN94M86w0VniB4s1Wn0P+Byf5YeKlWzynN/tQ/XyI1O4Zu8h1nWHx4LlUeWHwHf4wDvsnQnr8Xg1s2M6htmMWXKyf3M5uAebvDolFguYEYNecv6vlZSdcEoonNUt7WRbBwLYaxUid38rldrnOfGOIw8FYYGuh6cR9d7kpHe4nAyARgmB8gMzofayahms4MFN3dyJf2mGvAcnAo862XHbBOBaTC5i0ABPEPXKrpEQNYxpjedNWFUvr/pcZdhhpWcVTGUkus43ItlZz4eFiKMn2skUvB4gYVLJPlcbwdBljgWri2BI7FHi3DHAz1wgb6AQXLNcsOZHu1m1aSs7R4oDkj6AQbf007VLdXjMdSFfs8IBADKyX0GTuYgYgaY9bOD+XMtSd5LLaRpRF/SB/ZrgelTmn3UcRDiHZsGhz3qslPb1gbwLjbPQ58xNcxdrJ+JLcjg2uqVd/gcTZgZz17T8VisI2HyyPJj4Lv0aj+r9Po3GdGm0aPbUXHp5dDhzf6wDvjSIZA6jfR31Z+Qo9DgFoY7/YSA6WQEnsY5vYkSzQ7JkatnBUM6iW4iaCZO8sp+hkVNfpSlnHTX/jNc4+aT9A6qFdrH3GgIRhg0U+QBpOPWlf822601dIrSWtX+cYB4TYMOBJD0IJbFDu+6GZMbsPLhBvXP/QHRtmR0M8LHE7zYAUCgca0WapLn5D7L622sZuYR4ixtT9N266IhBgd4tNivmioL8/+oh7WfLl2KyeCQhWB4Y21hfA+bsIKl7A8BYrKGNpXhko8jDPzUOas9XjUOLTLrJ+UIaBm8quRcPK4NzbM9uMcAtfPnqX65rqkmwRTx5ElX3TmYmtqNW0CXsTsEhoyM4+ocaoeqwVS1tWdbX+MKt1brEGafKO1Hlo/B54h4HMa7LM32kMaOkLAUgEqAjqXe3ghd70hJr09PUYGXqKZFnE+ngK1e57rdLhFkHXDW5hE0hSOOTupid7mrkyNUBu31jC+Zqo5thmC1eTYI4GR+HrPVQrbPljhT0uqhQg+c7gMktMcMDcRDR9LZ5QrPDkZFLqpmSao/qFCDdpw2kyq3oH4z7EjE2AbUQ57H78YQl66goy2yr/cdDAdxfDiIsdtrMPLda9lpP24WHja4EzBO72GnbjDaneGZ43meeRolfYf/igbpxOFLsISLjzARFKw2m6qv9jBVeTAl37tcmliDykEKcGiHtpuBaMGnCjYpVadB58W6ABt+MMi5p6yGcgBHDngcQ1je9cApfwBru7T3ss+QhZ6xJpQOYAFzOkB0MCUUv5u7GcAIeT+E4ODo917jb5/66JLg84uPy3iXRZYcvvzLVIaHg/wBI3s0nmQDzMHbD6gYL0s2lpcuuMcNiBU9MkedFJ7xOhrcpBMa2Ic0lRfjUa8P998MCkdnrufA2zQLpn+E3QGLNFBVHt5nUEVD3h2mBIxLGVUp0zxJnJFt+AMmzCxhKpN2lOlVPb9fxsIpMBiq00e5jhjVHjOgLUQFnZGAf9ORMuTS6rmmA/D2zOYWNBOud1aF+28AJQ12hVwfG3VfjfFwS+zSVXjAZ6kapraNthspOZvA4ONnZ+BCpgmPU9i2W6eBfmDE6Thoz7W7K4BJveg311/IaPVWIQxWwO/z9WJXi5PwQMUELMD05XywzqD9mH/TV4idl2aR+X84cTxHTeEAcMWa5xQbDdBEKKsVgxuHLr1h8IJ61dZb0U+pxgQegHN2YzR6TbE/slzM3z+ejfegMjz4MoI55PvuWrnWqENgzmHqOdJYmtpldJgI6pxqB6Ea9O3olDDSVRUZH3TE8XuJTeMimD0VM6FUB0AwyIY27nK9grZSs1dgjGPnIYx9qnFoMdU4gDDuxT+9RM/KMPnU+V0Pa3FXKZ2WttF6bBV3h1L9uR5kg8rj69itzVgVfC+Bn83i3lyFWpcRPR0oM7BRuQ3atDUGDdN6tu8KA912mbXsInKn2EyEQKQx0kRBaH3qcWhCBtS7xitezIEbtpNsZuJtHcrAwUI2NInXhZrNPD2BhKOBJ18sVLF6r7RX5gOsGi96vNXOU4J8vuwooPVWaZwD/WNx+wtsabIDjeh6mo7PlxHoc2eozN4WpToc5vfZFzWragLBxLRvr93rlBpM3mkdx3D8ct79YUVHxjnuJ94i7ZPF7WbP3/6PY3X6G1DZh+GhyKqCNp6gDXX5IuM3R6OB3BLVswEInU6Bs0ijSkbMZhSeDE5z8aqm2He8B42nMQ2rqUYqjKQBrKMRvFnDFHis/ZFMzYjVDoJ9XduwWLolK14nbOCZYtnIpYw0T9tpBZu0YSxXopVrbLsBdRna+c1YOgXYXHFfmJXRLtPl2WPKCqGnPROGEBAOA6sHuxUIw/NHGFvJ7sslTgmfDfsMij4C2fWjmPPdhlNpyBB2Uqg6RkPME9dWFGYZAxpnWkYjZzkwARQq7ak9dUyIljY13UiL8yiEFs+pVJNaybVZkUtYcVY8N8SB7D8TBFzvon2hpjKR06TYVsY0fV9A6w3X4AxsPk0LRg33c1aFZ2qTa+bQ3W7qqXrWznHBUwNTSKdkHxO+w+8xRk5/KMbHv8rvDy6SnWo+zwy+eO8pC40++i/RmR5ooocIWyHw7CkL6hfiz9fKVUQIzt3nd4G9o72oB6V9oUAZZXkkAaxV7ouYlotYZLyPzwFhHivAfbVcDLU4ZjNEwH2WS8MIzrTAbP0uwBsAqFXMAXOxOWOUwWjYb+0hoHINhbiAeZ3HvPPeIuYneHtWl3uYbTM8xJE45I0c/VRBYTgY9qo6Vfw6Fghijemgo9R3TptntGGaXM+Ljdof3kRQA4Be20NmeBhyMglX+9jZDbcC1m50vYaCXsxQ/wt7i0cDalUh0gcwDOrMzPETwQxYAVaf9nBrnsPb9gyqtFrCgoXqtX7PG+e2arnkQJasY3xpLzJQ3QxSs8dpx0xUpa/d5Ef7MQP/qPad4E2nAkKB6Rg6DDaTNTrYfwP6Q/tcE2iC+fD5fPKDSg1cmPPCxHtG8GGwH7yOQI8xnrFxJuOYHB8CAN1wlS5gY0SravXhMv270kDtwmLmyqG6UFdNs1v46Sg1qLpXZfUQLDjWlusPseVgyg0ORQ+mGk5SF8mpafwa4N4ahZcx6IjNGgYxCA7DlHhxhcZ8n+uxs/SIZeHWeBuDSQvnxD1dqIceoR2MB6xt6bFbgntTdGJ6yvcFIWygWjYM4w5abj5kvmKjN8IEOAy3BfGAGgVlkm1Znacp4fkebT1wnqvnS2u4mQMKcHE/d3V3y7g2Tpw203zuIqkzng/zAvoECT1oQoPJEPaKqtiBbhzVAaCK1OQR6A2YehcMlOxnBJ5k4OJyBi16U6bzHgJ6Op1zXa1OJZNcakD/C0hancDbcx81gaZKt+u5KUOqDfg8ow0zQrHu9IybRj8eHGLJEI/3rB+U5ZnBp7C6k59B+ONYbvexxB5waSG6IStlBod5ejoDhl0WCye2HU0wCBV3b7qgAwWdLGeatZkTGvceVeqOoALV3TsHeIZtVJoecs6EcJ8t9zEE0ujqAHALAOwUmkctdEcI1eWTPGMD6FVQa+yvTUFno7b0njPRlTs1twgNhqOKaTtpf6nONMj7Qz1fPWSYfGNywRDQomLcgQEv3aUBi3KdexEuVxj8sLROkIm1swVtp49cvFOipt0SxNVtCn6r8wHDOHMAduhLGRxbljb3ezfzWC/NEcHRAgCe/G1SbObPMfg84elyH2kVjkydB2PD4MO2qVCGQ7gnDkGeg4dJkDNLXKcH67KFoW1LQAgMGl9RN91ySu4BWA353GfWzgQNTlPHtSR5YAwDRBu30URu7Ve4txX5Ycm6PwB4lmcGn7fojj4HBd6ILZ28RADG+Vxc7rMcWfVEsyqinfaSlXCE0XzdnsDQy4QD7SQn9dWmHj0wHBzRoDFgovK688btALK7ORkbFKxz1MxctcJIduNwpBSTW6pYbDhAKtAd6HqdtZ3kOl+ckmUrlgu3wR3mLIbBbVfCea6cE+nb0um5AXWlHdTHo+xlb3P/ZEjrU++g0AHQKMOCJ+WqfrNBtKMUEMaluzdRJ2dNPDTGsebgclC6j53TXX5mgsYADSD715kmAkotoTNCHQCuu5aWBYMa438HeJ3T1bbWsXDdhhs0tvr0RW7MKDtyX+rpYnC6nbqijRSKsT/6JYHYpnMAvSEdd9GfT2FjwJZGqjYlr9wUEvY1kpHOJCZDDhbNEe1HRr2DutO5lXj4ZKlZFbL5FPAszww+b97p8dDuy3SyqpQRiX23cS0pDVdoG9eUAkCX3U0OLo7GYpQ5z6kaMticm3XToWu8VufFTV9HTAAZpsRe8150bzoTiyXX7JzXxOMeKSBUCH3ofsouaKrc3Qobxpy/jt5xXwjq7cKkE/BuMii2WAZnYZ9dG+fiGLXhAiCk5OIeU6YUgGlFe0Z/4NU3sXU8v9d9jTUd6oAvbKxapYV7QUE99G5dsddlMIwP9dABJQMys6oxIk2G6GoDms7Pd70WhFEfWIRBJPBaTSf8NQG8P945bTIs1LYv0tsE8bAOlUuA1qDSNgCUaAV3eXXfGU/zdI8jd2fwY3zAcBcEp/GEuMxeh5IM5/DC6fAZmUlNf5oQ4mByvt3BkzY9PaF3XvdBn4FL+/Fyu6hc8XBZLhnP14PKM4PP0ulOMLoNLGL7dA4AlyOKzh0a1T/MmQ/0TnpaemL9/pDRJPgcXDSbjnO7tSXsUUrvdHiCLetsXA97zev528XMkwO/r3eJF82I91Qg94ybzpa5tZmA0fV3RHpaoqp8CxvolWrrjI/qGYvRDbzxgwWvbfQOUU0DXjpECNWMlrbp+GoagHV+ukQYVJj6q9fbTpUtZAnag4NhBgcwxzNncBU8b9MDBCu+jwBhlDxCQO+zW2fHCGwzP3KtAbfNHQUy9w5GQt05h7tc4bkyKBW48nPhtt62B/C5w4FqtJ7bXcNItlsGAyil7Ze9eX/lni/OAbtdmSaPuzfwXRyktP2oR82KVALw9XGCnBLV6V0v+RjwLhcMan46++N5vAb9L0NqdodtHw5f56d5nt7qh6r2YcCzXAn49IIOj36WXw7SKEU/xhoAbB2RULtZJ65eE0BWLJddAkZHtvaCDTeE4DQa1l4MaIQhB9N5MsYHI5TNearWrcLC0G1idzVzhgUW05jnfm4pa95evbu6gnEr3B5qFXtppe2oSkNta29yN5cpGrIZjPgODGtQXgPf/WF62JF9bm/KvLuluh9JBUvmzlnrKU7BCeDDYD9bAJJpPtf7uv7YZQMGwovVPs5PYPWVe9nBrLxkSQUiqEpZyGA79XTXT19miFCbnJ3RntPR0parBam3yb0Bph68a191RNyWThXqNW7gYya1G2PaID3mPd5rjzYJCM9Oa+PgaPYUgH0xxzFaL2BrwKvGgiDqNDVlJYR3OeBdM63m0onR7vND75EnNHXHOEOv8xak4/vU5WGq9pPlSsBn6Q1exiH4MioSLwh7hr4BWAZ86WEEbqxIBjGo7GON7DuNw3/Z2f7iOo7MraTRW2NLqUK5ZkSDASqcwbV8QVbkwjyxCBsQMfEs7oo95qlGXuOkenqJMsFalaPDwfs9mBX1y6CFLblWNzbVjrWghtSL//EbdfZXVJBTdYeHh3Syam2TdpIOk/atKtNd9jeqzjY+IaD1euSLMLmLbcTLdkLe2ZnpOWbDvIK1C0CK0U4fqRIFZuxwjgC6qtyjTh20BrcFUKpmwKWadLdQ+07WsrjqL21MQOx2bKZIKfgSM6Y7dFC6/pdBmgkAaATAIUu6d+KmmMbWpa0rbTnTwrTRtCM1p1CnqHCPnqBxAOvCFuSl7W0Sh2u125hdne6NHwHeoxjvstS1v4Ki/XNw85ewnw54YahTUef3RqNRjri+Z03QoBUN1sBe4zGZXuXUk4tl8lh3GpQLyxmRskFBR+jmu62ZI9oI+7JYxZQRr6bI3TlRye7RYrqUQtd+qZMfVXe1wPeNRRxhlrax/UxcSEZFbW4wD0yF13gWfE4zCYhC5wH3VvtPELrr/W5/wv2dVuN3AFDu8QIb5twxUlTxBpAxATT4hxPYdNiO0XCCZ1thJmiaoM6oT+mp6oDM6TNdGHP9utiaNJFnlXzPnLoLFkO4LnmsCYRPjXvqvO14Hv+8PqfELq63JspcZvS8YB2JIZ41t6GfZEuBYR+7RNWUNk0A2UtN5eDEu872KE9VJ5Vy9golYR+Zs+hTagdMdsb5oS3Dwc/ltU8CPMuVgc8ywOvt9L/IiAVwMJD07TxhnS4vUxkX0saTyIxrMUrxat0S1mkwK67K0lM27pdHFMAwma2BKrfxZ+fOM9JIDGudiwJ7ClFzTz1J7Dr6a+TWu9zHkeoIdo7VbOoNwjeYbWqR7DEYqu5lJ8MdTpIPUa0K0kyYftbLdRUZA8TgV2Ua0Zelhr0JvwMORNZoLxDebeqKMHme21g47dWCYd1KN/PqGCQ6IMc3nPJLI4uX1FrbvNpQMpbv+7tCxmQDsE5b2Xd+H0YDBC4wcn2LMzWqPhHnAM/dALift/Z3zQi3OktV7aDfLPguDId612Y06VOPVTfHvDzjk53WrXSwTI/SZjZFKjUHqqXWDXx3U/A8B4UPOAR8n8/nPwnwLFfIfFJuK2689KsI9JCOMZfNBTg2XubQtmsCBFQL76neBKUJie5WYL6YqVCDsbMldoQeHuDhOinenjR5wQMAXUFm3qBA7vT1JBmaqAUdEE85mk9rby36goyRvTQccpDB5/XaNaU+CzbmXs4yqLqdrVgutcdQkx2khxANDXX7gpQOBfDbDWbEHMFj8Mf+lPuccplzsIDDdSwIslxpSzGAAJsZ1KpDHYLVSkZ12YALpHYxBEzG4XblmLZPcHBk8YLvADgMfh1ZU5s8xbGBabBncO0xHcxU2aXTYFKplA3bUn8H6GXwuJWhGj6juGHQfG42Mt5+yy01UPfOfcO8it+0fmcrciEYg8o5XGOVai5DZp4cf+lNI2FAz7Dg78Db7XaO4rVX/xTPM8REHZ8AeJYrA98l9fcGN3E+foERPwEoh3S2HSa10y3wtTMQ2meObKuq6l0VOAD89H1tP50PZxcUfp36rUqkO3mPlvLqADjsShjB9RIBWAxNubvBGubKRT90nmE/WUPbU9vLowoMA83Pe7lPikc9pc3H51tUvC/DB6qZNYCRkYxPmjixrbrJsluDq6q+i6ooGHcNEHgb2GQ5px+0LwG/g3G7VsXqJMFwCrwaA5pLw5zeoO71q4mKRuVyT2NrjlXnVfP4VOrud5cz6gKmPD0zxzLqXo/XxAAPtVws6u3jnPTXoVl5GuYSoNKtqtM85hVtIwEMhmPUJnXiw0yAzdCD6rmK0QGDgcHk3LNaSjtRpmu3nADwrDa8Xc/oaL0KI7/8xKC7LFcCPin3EvnafoNDbID+EQ31gL8RgtM2QDh0+nqN9zQYpwB1AOoFRk6dMRr5/qXdkIxhbArAGeiVOWoQYqPBSrlrgWoZPet493Qgdx1owoQtzC8BqR1ZwqLNYzpssIZVYVwEnpvcLA0um9kME1aOeAUkW2xjOYVFZ308WT1WPWyjbzCMxndfh8rN0GVuwTKM1QIhYjfldrHUw42OFD5Ny3CEzEizEjgyUe1oyb7UH3sUl4V+qx0cmU8WE12XA1rR2icCAJimysycO/qh/qd6V13vcGbmgNB1JAWM5xSb2oP2wdxOkdGIGoTIrAPjTSaj/F6dvu+sBcPVynJv+14TQ+LQ3NQbN4Ml79OYYE/+XMrmhYHvEnifLN3+qzE8+CU0VS8WeG/pLAAadwswDKMq1lAXbApUFannZafbDD1jhZDHtXstToI7nfZdLmJ0pV0gOGcFZAw6EQCaUe0ZF4ZdTKVqofb1mFeM0O6EkTvCMDdQK8McbLApXakVySYCW8bTppKNhs718nzXNCxmGv7D6JixnDYoINMxwrGxbSf3ptSdG/EcZyvaXUMThmr0LPtxeDzGNJB1ZVnuK4AA2TwPjsExKACTDldpPA4XggHnRkUGkY0HOtXWbGibaaK4G0IjRrRHc8K4pY6HxzNEc0HdsQMzqO6mSu2YHJo2ZvoYf0MCezQJt6dPTeitwakMskLKA/Jr089m8ajSPcpiwPcae+ze3LZXxncK0ue/Qd1e4u+nh1DjxAzHpyyqDkMQDyr3734z3nvrr8Xs/nchKG0Gt63Ve6w7GkWXnZceFPTOWKTTULeoEbdt0GDXEdDWcaGznqEZs6bBZ+QfYJnHJvhdseYEO/wDkE0/lyVgSAZFtTZoimBwAgySOpq7g4JeZrQXTq8JLo1+PVJfPAmP0OkyVbYxPheNaxvKBhUMop3nkQfFGer7lMGFh6uQWgBvmKoTxmgbgwOo/MsMER0g1KS7e9Io6gHT0JZW4xCAGIBmsGFvmeSQW1LQt/5Le2qr5qjjg65Uc95bc0BbeWN7sfUcgLKW+8JkzRkoMq4zTsb1qBTcbVGTBGxtGCri4OaNZHVqyCPpAOqrKs41xfzd7h5wDxwZGM8wlYuyNtipr7zxr8Stl3457/ikxfjkU22RdlkU+sOAZzk8+lIcHPxC9LpHNRhovCZbpiDBThr2zkSkuuY9V/j7U3hCkjkKVReOWifldWD0PlMt02typMIzzd41r6me/B7gnc9QudpV/HPes4maNMzgKHMFmZ61OW0K3HULgqXeXwUAAwyBL3O4Qq7vWuEB7CQjQXB7QCwAq4KuW2J1JoAwH3BCVN2qLlVuqi4qpBAFBE8GVLTNWQgaqFPgBuSdPkIwjQnP2Ry3tIdtH/2S3j/gd/bCekky6YRxbx0AbTyD0st5Geenuzg7acb0XBMF5uR7GbR2ADKAfV5uI2z/4jQ4WyODOcjSibCvqGMmh6qiqU9qH9qT61uyLx28XRy/15HtlxTzM5WnAt+DVO2ni4fCvfzGH0dwx+koaDfZe35NIXYyjcgzaIeMMEYln9XbM9BBjPaWi5IY/cYEaT8dWrvxmUwJCAWv7n/m9PHfyhw2Eatqp4O2Wx0dM3oVKHYhdqer61wh5hm3bn5Tbnpco3PCS5XEsw0+73Z9PD6Ejz1oPNCNheaq53kXIJmZU2WaVa4G69Yhj/ERj25pIxqj3GLsA2JtPNjMvtBec75a4NaDABO1ZwBXProUtkafsz4yHPezOemYIPqWsxTG9PCcizn1qzcL91mVk+GAxkHQp3+G2NQeR7WA3TQnnH7MY6voS0Gm7amTYX8tVmvaBAvT7gypIJsGdVBLyNTOeliRelC0GQhuTfIrqN1JyvlZyhOBr+4IO/DRwLsso4NX4+brfwrGHsQawTri3bPNRUBLkx5pvJ2iV+hcpkaw6TwGQrURjSQIPAU+Pd8gTNnAXvCaEttsBBhRfSsTJAXokvsoMfizscqAbUejfm/y6Rhv1UyWXoZkMstEBwgNvCpcJ1vm+wwLgAgTIPCaJUSj7CUDdDPlfcMgodKZkj+6cYAgXKdquAUGb9NHMKkOhdkkrhKzXTJWngKEvahdaaij0xxFr2P+24g+MeAuw+VjKQ6eXYxGw5jwnE4PEAN02dowCz2TfaHKlQzgWJ6DedFGDfPxAjbUfXXVmylisnDHmCVt6ADMyXgCwGFbTBhnRgoG92oBsBfYpvS92eFNbD13H9Ax6TrCYMbJ5Bfjxq3fawWfuTwR+C69rycpr3zuj8XB4S9kI+Zzg8Se+J36LgGQnmTKsu5s7TnVjF6iQeH0tACpC3/yAD6Ep2fsDIkB6eXqnH7dABLDNgi07Up5t8FF+NiXFlOd9gWdB9NV616sYTWn3TSuh+5e6mZByTLWwymyivcNcuMENLQ5qzg6aiOYWc0K9MNwhBOEKqvtRJibRqgmBa6q3RT2Oqa2QiXOUqiGZbRnwTLP6VBfQMgf3r8/4J5j+oTvyOobMK+d5aBwxgIEZd/b+7kjBMPJQetPD492iw/vJasVMJ6ZNRnw1jZ1tkP1QL8beXCmxTld6+M9zJzp8nK1oeaRdnWGmCpzdUxmcObDGZ0bMTn+fXbplZTHBt+lqn1S8DmT8YUv/xm81FcRCsZ4doDGrusXCsAFozCCFZ4gpPtoqB0lGIzP6drrJaJC6Syn51yOaadq862W7rfHqG8LJgZH04VF2Dh4tgafBbQ2l+tGXGweO0/M1HlQaIpO5kDH8du+AUCckYB10vOmqY39ELvIPfY8rl9BCLqL1KN0TjyCYQZr4rku9QZ1rgQBNmLhC04qZFyTR2kbbRIo6UxhP7pEQBA7d6tC0XHw941mBmq44L7T8zVqXw/UflJx1oF5Z2n0+N2RwKm2tFNhOPP/POjatSmaHxVsZ76dTkYyPAP7cjetFWrX/EAqRR+2cCp4Pu8bD8Vypb70u4kEzQHe8y/Tx8axrqZ8JvjsTIHnqH660sCj+tk4fvUPY45N6HAsiQumkfIbNEx1tEbt1IuQ6VBYzs0Sc6UY17ZQa1Qi1Zu2mauz8qgsvGOn7DLdBwAJmLRr2oZyqhqcqEtDLB4pX+/8qTPSRaiYAdRNI9pdpPwdXzMF5nwvChQBDgEOjLvCVFgpSEDOfduyGwB2wn9tcDrtS50fQcTfEO4MwOy3fVhWL7JOUXLRko6Pgs+8QwPc2LsmOCzmfpfuAgeXu5e6G6pbcZjKv68GABDgcJ1xSTdtNOZm8qqg5vGAyjW5qnk+B5ymYG1keswN+8H4ZsZSAanBZo+vso5mKqtdXMlnJhLuO8iA7VwIT/0amBCD0Rdg5i/m4Lmq8sg7Xdp4Au9JGe+TxdDBK5//kzG6+Xvq+BsjEfOM1z5XbKlyhba7Pm23gAwbw+21ZIL7989gRPWyrNFN8Lmm1FO+DYOMJigGVCAaONlhepGJa9o5X0i1tEEXmQU9OjRAzH1gUZ0Jg8CrhYkFrjnpxfy8E2f3AIdLtQCfTOPGjmu8xl5rkoa9p6SDG29d9wtXysyqNDN2tgC5LJ2MN6nWYLAGv+YAwMN2FZgdgLNdYavOW6hkZ3cYkDhg9rdJEbmPIOwvSzlYTK03OG0mjAMgM4VgbrNZnH3RmQEl9LPP6mOrDWKMB5RLIa1hMn09QDrdZrKlA2I2XcbdO6e0z337gAJtmMK06ATuKyh5GQRr3ox+/+don3bf1ZWHgs+O8PWswLsso/HN+OLP/pejat7ivtplYzrdEV9H91U35vBp6y0E1opnmr3B6BMEel4yi3vMnZxOqRNqBeHqJGw2tf2UmbV01hqHJqfyeBnNH7rB9457bpd0LJ9prLvtK0DUQD8/qwPO3R6qGwClIY9Do9NhDpu24/37J4CUuzcGXKtNp93qT3P4AMbCTB1nbFw6oC1q0KjuP0MVg94YtnL+FM8TJlrDvJ3mAfeU+SF2AGIc0/njTMcH5DKS6y0G2KCjMezTpy80U2BF6yfonPg3KO8pnZ5EmQ6GJ7PTRtnTFX1qkzw6NQHtjl2ocMyFRmeJDacNCc/reMDinv1mUD3tPPrTv8eTL2M2vYIUGRxXWB4Kvkvn4iqAd1luvvSL8aWf+1ej0b2JSoWFMKxVHR4/ZerQaDRGpaIqsDd0NAx7tFuMNjoYUy+N8L1JpIxi04uc+VBd6605PSQbGM/quds9Ks2j58t1bc85v6vdjhHBz03ewyyVwbAJcwJUmKA3bsTwwGRLvk/X6NxAWjEYr+PlV92xwPvonfMmwDbXzR50/YSp+e2eSaq1MyRjjdI0qAGifeXqO3ejd0WZccaK+rlJdwWzpp0LeARnG6FbN3MADZ8Y9jAG53pl43sekljHDuk3WarEjIDBV6hl56cZReGpnu6NbYKGe/R5+1w/kzKt59RN7zflyiSPOuNHGxtHDVVrTmFmFvXfiMHhzydBXHV54B2vA3gW1esXvvgvxNFLv8yomyA1F0ObmmPWiQwhCGtA6ullWpNzkQhD9nPfu2KFEGBDO6neMwWh41nqgAgYs0tkDVWlLGbKlN5nFy3sdl+GDPqMdMMVqiHDOoZmtGtlWusAOfA8424Kl++aWQ3OMlBrqIRnF/MS0GiUu+SzF6MD6gv43EZDZyezq53n5bkCsMTgN4wjwwsywxqGRNw+2AP7tB9XOZC4DLCa5eNgNLZWYocaiys8CsKlkCoF2FlbL7dVY7C6R+KaPluYWMHAyC3QYFy0uNv9YSdad5iUQcH/qEe9BDLzBTP5wwExyPft/9xZtHsrJi/9Eb5nMunVlx8B36WNJ+ie3sF4dBFMP/sLfzbGR1/CDEGNAJRNAdMBFtWtNoyAUmU62mTC0eSAETrK9KlMiqxQHQheQ9xljGbO9EfN6I/1QBEKoFIweoHD8S4dFOeAj2+MYnzYjOFEuw/1xL+FC4V2xxeJBjy7RACtQwQOI5UCWdXulGBtrCtsl9vqOGxVjRrs23othqnmKlvDPNuNzotsZ6gDhmbQ7FGnHdqPFsxwz9LDBnMdis5XJTRjj70oIMy5Mzum4ba09ElOd+0BBqaKC821EYfYyw3a6/6I3cGQF8DmP2Om5/enUQJWFw/JsDp22p51UgP91TtE4Np0JhoMAR1t4PcKk8BT4g1XHd78wwycz97q7GnLj4HvOhjv08W9PL70s/+VuHHj99D4HmwGg9Fhy9kcYTjBjlCpixnO5gS6kEZWQ6x8dwyrOH9aMyLKorbP9th7dLCbIRrs5espRI8b1VDe78aoFtWp6tbJekczai/3gnFzSifjARwMYZikwLif4nzIhEOPcj03fraP8/M5HqdBa20+PG1A7uBZzjuxPB8BlhvUQ7UP3aDr1gyQwE7U9dnicCyxB9erdfRhYAG2WmxjcbqN+Z0qpndWfAab8b6BeL1zQ1GyYXrxrRWDyxQ0TAoAbeJr08EKuObThdClh6hLpsS7fcguZrRjB7r1ZD1ke6fJwLMXfl8Ng/ZpQgKGULQ3XaGn9z44+PmcRrvO8jH4ZDzLdQPPIshvvvrz8fLn/0UY8PPYFS6nNF4Fo2C7rdbLNJatSR7IBwvm/scAJpmSjvVExjbqU4ZWZapmVR0uLsoJcW3FtO9qNapYzNxdzrgrn6sqjYtpaA9djH6RqWyQ2eRPt2nTzDGutpjLZ9imOBoucnJ7DCunh12nFOHGABKPr3ePYpNR2z3sO3cLbVP/ynUfsA/MmBk92KbOArpdnKMkM0UYhGbMqE6dm+3wHB0aN8d0Pa0PNDCe36Uu2rPr1SpW01Wc3T1jcKzw9mHYRYlj4g4KI4CGvWcKGA9zw8wZLLuizmoK8yEFn9OOecqS4SXqr+03PvxZ5PILtF97+fpKIu4SeNelah9UjEXdeO1X4rUv/zkM45eiOzpEIOgMGEswqTr9Q+Feptw7F6z3mXOksGMPRuqNNG3M7HB6TQdE1ahMZTgnzl32WC8iUl2a7GkIQ5Wb88LYeYJnF0XaZ4Y5nDMVtM48OBa1qXo9VBvqzZ8WTQJnOlTn7shggoILhVDGyVi5gylgs0uds3ax0b7bzOPCKp5R7JcYgxXGPAwOZnfYk+6+79y1616c6an35asTWO2XRmNCOy76hvYLamOZPCnrvGbQGu/MA7lRr2bOGLKpp+ocTAanYTh+z4GpxQGzG7TeYJMW9N3w4NU4ePkPMzgn2c7rKmKO1/MH3mVx0+5XPver8YWf/wvRGU0YpSM60fCCMxqMRjrWJAKTSh0nepmqUPPbMjyB0AfOqfZhn6ZCMgXcqblaTevgjDHaJ7z0cl3m5wzL+XmJUAEFzyoAZ6p9555dAwIgNMxN/dfb1UEYutUaHu3AlHu6S7DVR0AZRUTtytIwUp2z6GEvHhKjXaVBj12bSQ14o9zfrdh2OEJuEdKdgDoIjo9pP4AbHsRm5bz3OmdEnNMGQRmz7DSP42D4EqCr2ckw09Zwi46Q4NejZbC1GI1627PpPAefu1GZseyi/JxLB2y2VbuTb6UNqucuFQ8nL8fNz/1p+vNGLaBrKhfAiwaC2j9uosBVFh8uw2nIOzn+3lv/MN7++l/H+7tNfwMe1JF2jgxQH27nJD2qEYEvF3bsGmA5qo3zzVA/qOq1SY7ct4PjcdGpPb5v8oI7QOUBfglgXh1X0dVrGVzwkyEa93xpwXaiAXtxOUeyCMk985yMcDvfrZ4lUDZMUcpuqkZYtdM8ygTNg0MzcuapsjutYczOAiAAaJ5r3NAF82ZMc0fubW6emTWoUp630c5DtW6NH8JeJiaMhrAVA0Ab1kVBtmFrjqNmAm01a/n8/g6wHwB67GGXn3JfzQUjB+4kCv8BQrQEg92ZDYwCQFybOQbzW113l7oZn/89fyEdwessn5T7M+7PR88+RblEvpXIFVcUE0y//81/AAD/WkxnP0gvs14Qgw0Cc5kt0sWW8ggn89jaqLmDCffhpzvYF4sF3zE6v4wBQjF8Yygkz7fgn9Nd2mwGbc1QcaH1cKTtCNCoi0kAqlC8Bb5bZP12m+P0bsWJaqrRRFWipp3mygl47DFjhB2cgNxqzLANwNrvVzgpk5jiBERlPE/vtWIANaibRv4exlbXouKx+1T/hpxkIaBX5zPyfM2BtjMcqE7t0fqsEdWqNiUKnr9n5wxU2FWAetQsTc2XMVTZrHQU5Pw49eT+erUORp/pANXOjM6N+PIv/Pl46Y0/wLPog88oVyV3avZ8y2UF0m75RDHV6md+8c/GL/zqvw39/yxsM8SAh6EYpfWuUXp8DUa+BrprQ7ARmwaq2xn/qw/Fw3HAJuQpPENQqMJlJ+6PAZ+7LwGSIerdeJnxQFepGz/TtjN1XTB8PLWmR6iaEnyAv8IcgCux2VwKwFe5ZrdRiHVi6r6x5Lnup+KUF+AeaLs5/9zP84fHh4exBXgOqYI2mbjSgPkMQs5hvbNZAUsWDBrqg0HmLgpgBJOilcf3uxzVrUR8mW3tqUaVOziglk2YZbzSBxepaLD+CpDprLkqsIc6dnsz2U7g5exIsmMnPvezfypuvfb7qPtnA+9py4Pk/lzB9zDgXRYzjD//s38s/sSf+x/FjZf/YLSbIxw+Pdklrw0vjWqRYIcP6WQTLzWuASHvGV64DFCnHQOict0w7NHDmO8PJhm7MwtG7855XRkrN/KhSnm0FGC8f1cb0HRxwz16gsbs+oAXFdVmUKCqUnVhezYAnovM17ntmuETbNRCR8euZfDALtqehoxyzTKM5BpkgdJDBQsObVvXU3jUlzmIxgk1NYa89gw2QzzaacYuXU6ps6FZ4DTYeHyc6tQBo9UuG5bcxwX1qti0Ax3EPFMz5tK2T0+bz770i38x3vjiH8tnXld5mNyfG/guA9gPA95lMY/s+NYX44/8K//9uPGFPx5NPFzZKTM9kJjOiGpFYch2sxksgXDbF96oo7resBpmcToL1W32iJ9DeM6dw0a9FHoLcBsE1ngXLC6UVu3mKUWr2qt2RsSFPgZ6d25nUdQeqJnCBUDzDDe36q33cQGQFaBdteP0rqnsgG6Fmjpd8p4hG+w1aM+NdvTedY6czzUh4KVXJuGJYh4gM3DP6Zbp+Q6KPYOSQcbP89MpQNwwaFT7RgYUKgxGn2SmjOMSlaa364HVOa8NmLXpNR8MB9E8wCuQu/G5n/+L8frP/kmeRadcU3mU3J+LzefDrcSnHRunwi5tvgeVdTGPb371r8cPvv2fxPn0bTpX9buLo8Mb6Smn0R5TOg/1VBnm4HOEVG1WMTowWAz4MOaRB4Y+qha1u5jCJDgGbkXhgiYX/cgGyyXe7MhF4oZp8Vw3/QSYa2ddw2tYItP0DaXgkHQzXWkFm/I7NphZ1E7ndWmrdTTxFenzfKcETQZwfS+A6eDYDDp8B4HjRAkqqhv9sYNmi0kgg5s00MJG68RsBVoBYe4sxcvVfs4902g8XJMUFCy2ISrZ3nUDdhfi5w4Q/C3bCTYggAy4FvZsY+N98Rf+Qnzu9/zJp2K8q5L7tYPPh2sD2aGfLp8FPovZuR+99834+n/+H8Z7b3+Fd+YwVxMhHeQUU7PhniMyCB4gwtNqccUb0M3Rpl1Tb6wDK1bdWE6Bz2aTXqlqVuE4m1BuBaOhCW1FHRXtozrOmAvLEd5sVq+5FeCCF0Rl/Q3MuyKLpkYT4Lnj59wtJbif+0MLWk8n18nAeEBVy76GkNY5Q6INOhyj1nU+ENTl0aJ5tAAALrV5YfA81GYEOLmmqXMT7l+jXerZcNA61+ZeLzBlxjCtECVnraiX4aP+8Avx+Z/785g3fyRB+jTlquR+reCzAgr9QZRreRzw1WUfy/lZfPfr/zB+/R/9ewjkPiyCAd0eINwezzB0gaG+WSTw3NxQR0PxAB3+7oMTGGhp1gfskIFhgNpxVX89n2zCpY6DGqjlAYOo3EF/AvCwD82ykVFtB4KURfJ4eUa2q8NWy2UCoAWbyTF7DP1mvxsFYO0ACL4CyTXj8MZBrI31wXiSttDAecdmc8ali5MgAy+iB2sZNPYYVHdo1Vky66YP8PgQ8DZT/ZpKJrBc2zscTRKUHt3ldnSC0ucKABkvNcbLvx/g/VdR6y/H8fHTx/KuSu7XBr7PqoDl8cH3w3Lv9jvx//0r/4tYL9+D1stcreWSwx6AE1D4kaiyOaO8DBfvdJCuGSXmwSkN0/VlQE+M9KiD1XqGWjQDxrnffdx6+QaqaBvT6RKBwSSDYaplHQaBZohF28kpuD6gSGA4BbY2VIMaRMWWC0yAYT/GODiuLfbZDT116jS5Mc6E1tw6TRUNUE17F3ieYTcYmb9YUlXMAAC5LJYMtmbcuHWcoKP2mQZvQNtd4VWvZi3T4XmdqtZcw1S5sGq9WVMvXv78n4wv/+K/xrU6JxFHR0+fMHBVcr8W8D2Kcj9ZngZ8FuN/v/FP/3q8+Tt/FzX6PVhQkJhevwWQMFmu/hdsqLcMSi+w+XrRhdbMUl4tECFOjDNPak/XXzgFZqd5XMHkEGeD68wKdsbF+Jqsgp5V0/Jd7zlNVpNh3V3KvU1MSqiKiMX5NIGq4W+enjE68+f0vM3IHk6GgNYkByoISjI5AaYzPxDzrmZPvNVkLb4vUJ12c7rNRVMuPN/zymUF6HCwywDZ0xauA4hmwMh0JZ786OaX49Uv/Il4+fU/QPt+aN9dB/ieVO7XAj4r8CjkX5anBZ/FQPPdD9+Jd7/7z+Kdb/9arBfvxeFhFwcAcOB8YGVFG8F5nFSnpdGLHYX6NPMlPT/ApTeZRzhl4oHdYKfpEJgZ7LEEfI+3jdnlNm8wizbihi/saN8OIetkmD5vMNvY2WK6QL2veDYsBKB1LHLuGGC4RYhOhWerCTSXVHo/wawY+qZEAU6vzxBR6mU97k7NvMncCDmzjDE3vAd9bclVaNjCbmquS9/s3Iwbr//heOmNP8RgejWB8clyHeB7UrlfKfgeh3I/WZ4FfJdbLsiCs9M78ebX/xFM+B/HqL+IsUcU7DapckEitqFKqEG9csY3N+42zraYLXgfw3/XyfuNh0bfYSgEuXcDIWwzGUiwaEvVYZ5mHgvvFh8VAE7wyZgwk0skQTOgEqyGS0zalOEM+6D+AJLX5trdy36iz1SnfJR25GaN18zfPJm6q0YdOLAyn3miuapUJ8RDZbQxLZoF3s+yLztx+Pofidd/5k/G+OiNHBAPKlcJvqeV+5WB73Ep95PlKsB3WXz26f0P4tf/yX8Ub3/9b8Vrt7SD+LwShAp+lEKS2fQ82wgQmSaI3I635Va3G2xFOtCMGKfnzGR21wS3FIMmazDAlG60uC5WqcZlx1yKCSsJTk/5qQ+J8UnbXJwtq9YZJiZCqMrrIwVyi2Dec1pPO8+/NQW0KXPNRbjBJu8DPAGam6Rj6w0GqtwuTlCd7yfrmiZ145Vfji/90l+Mg+M36k55RLkq8D2L3K8MfI9LuZ8sVwU+kw8UaA0u6nX/w/je1/9B3L/7tajWH3LxvWi7mky7Ci/UI1ddcKNdZNzLRddDN1J3B0+Erb0GgfFTAPpqAGAZpL6/Rr6GvDmHOg25eTk2ps+XAXO9g7Ya9qBeKyhKlZhxOvuJ+2ubGUoxQ6bOXVTdAlfApI2YafhN7Dwqkp6rJoT/aCsXw8y4G/2b0R2+EqOXfy6+8OU/FpPj1xIMj1OuCnxPL/dB/P8AzIWU3JJbg78AAAAASUVORK5CYII=;" vertex="1" parent="WIyWlLk6GJQsqaUBKTNV-1">
          <mxGeometry x="378.3" y="1400" width="44.41" height="62" as="geometry" />
        </mxCell>
        <mxCell id="LtAShRvpwiNXkR26QhW_-69" value="Ori" style="shape=umlActor;verticalLabelPosition=bottom;verticalAlign=top;html=1;outlineConnect=0;" vertex="1" parent="WIyWlLk6GJQsqaUBKTNV-1">
          <mxGeometry x="460" y="1430" width="50" height="100" as="geometry" />
        </mxCell>
        <mxCell id="LtAShRvpwiNXkR26QhW_-70" value="" style="shape=cube;whiteSpace=wrap;html=1;boundedLbl=1;backgroundOutline=1;darkOpacity=0.05;darkOpacity2=0.1;size=10;" vertex="1" parent="WIyWlLk6GJQsqaUBKTNV-1">
          <mxGeometry x="464" y="1416" width="40" height="40" as="geometry" />
        </mxCell>
      </root>
    </mxGraphModel>
  </diagram>
</mxfile>
